<?xml version="1.0" encoding="UTF-8"?>
<svg id="flame.svg" xmlns="http://www.w3.org/2000/svg" version="1.1" viewBox="0 0 1110.6 1048">
  <!-- Generator: Adobe Illustrator 29.8.2, SVG Export Plug-In . SVG Version: 2.1.1 Build 3)  -->
  <path d="M554.8,1033c-68.71,0-135.37-13.46-198.13-40-60.61-25.64-115.05-62.34-161.79-109.08s-83.45-101.18-109.08-161.79c-26.54-62.75-40-129.41-40-198.13s13.46-135.37,40-198.13c25.64-60.61,62.34-115.05,109.08-161.79,46.75-46.75,101.18-83.45,161.79-109.08,62.75-26.54,129.41-40,198.13-40s135.37,13.46,198.13,40c60.61,25.64,115.05,62.34,161.79,109.08,46.75,46.75,83.45,101.18,109.08,161.79,26.54,62.75,40,129.41,40,198.13s-13.46,135.37-40,198.13c-25.64,60.61-62.34,115.05-109.08,161.79s-101.18,83.45-161.79,109.08c-62.75,26.54-129.41,40-198.13,40h0ZM554.8,17c-279.56,0-507,227.44-507,507s227.44,507,507,507,507-227.44,507-507S834.36,17,554.8,17ZM1019.86,187.92c2.45-.98,2.26-.8,3.25-3.24,0-.12.09-.21.21-.21s.21.09.21.21c.99,2.45.8,2.26,3.25,3.24.1.02.18.11.19.21-.01.11-.09.2-.19.23h0c-2.45.97-2.26.79-3.25,3.23,0,.12-.09.21-.21.21s-.21-.09-.21-.21c-.99-2.45-.8-2.26-3.25-3.24-.26-.11-.26-.32,0-.43ZM1105.1,677.32c.1-.02.19-.1.21-.2,1.33-3.26,1.04-2.97,4.3-4.29.26-.11.26-.32,0-.43-3.26-1.33-2.97-1.04-4.3-4.29-.02-.1-.11-.18-.21-.2-.11.02-.19.1-.22.2-1.33,3.26-1.04,2.97-4.29,4.29-.27.11-.27.32,0,.43,3.25,1.33,2.96,1.03,4.29,4.29h0c.03.11.11.18.22.2ZM1100.97,661.14c2.96,1.2,2.71.95,3.91,3.9h0c.03.11.11.18.22.2.1-.02.19-.1.21-.2,1.2-2.96.95-2.7,3.91-3.91.26-.11.26-.32,0-.43-2.96-1.2-2.71-.95-3.91-3.91-.02-.1-.11-.18-.21-.2-.11.02-.19.1-.22.2-1.2,2.96-.95,2.71-3.91,3.91-.26.11-.26.32,0,.43h0ZM1100.98,387.3c2.96,1.2,2.71.94,3.91,3.9.03.1.11.18.22.2.1-.02.19-.1.21-.2,1.2-2.95.95-2.7,3.91-3.9.26-.11.26-.32,0-.43-2.96-1.2-2.71-.95-3.91-3.91-.02-.1-.11-.18-.21-.2-.11.02-.19.1-.22.2-1.2,2.96-.95,2.71-3.91,3.91h0c-.26.11-.26.32,0,.43ZM1042.03,211.74c3.39,1.38,3.08,1.07,4.46,4.46.03.1.11.18.22.2.1-.02.19-.1.21-.2,1.39-3.39,1.08-3.08,4.46-4.46h0c.27-.1.27-.31,0-.43-3.38-1.38-3.07-1.07-4.46-4.46-.02-.1-.11-.18-.21-.2-.11.02-.19.1-.22.2-1.38,3.39-1.07,3.08-4.46,4.46-.1,0-.19.09-.2.2-.01.12.08.23.2.24h0ZM1042.86,200.05c2.75,1.11,2.52.89,3.63,3.63.03.1.11.18.22.2.1-.02.19-.1.21-.2,1.11-2.74.89-2.52,3.63-3.63h0c.27-.1.27-.31,0-.43-2.74-1.11-2.52-.89-3.63-3.63-.02-.1-.11-.18-.21-.2-.11.02-.19.1-.22.2-1.11,2.74-.88,2.52-3.63,3.63-.1,0-.18.09-.19.19-.01.12.08.22.19.24h0ZM1030.74,200.05c3.08,1.26,2.81.98,4.07,4.07.02.1.11.18.21.2.11,0,.19-.09.22-.2,1.25-3.09.98-2.82,4.07-4.07h0c.26-.1.26-.31,0-.43-3.09-1.26-2.82-.99-4.07-4.07,0-.1-.09-.18-.19-.19-.12,0-.22.08-.24.19-1.26,3.09-.99,2.82-4.07,4.07-.27.11-.27.32,0,.43ZM1100.97,317.13c2.96,1.21,2.71.95,3.91,3.91.03.1.11.18.22.2.1-.02.19-.1.21-.2,1.2-2.96.95-2.71,3.91-3.91h0c.26-.11.26-.31,0-.43-2.96-1.21-2.71-.95-3.91-3.91-.02-.1-.11-.18-.21-.2-.11.02-.19.1-.22.2-1.2,2.96-.95,2.71-3.91,3.91-.26.11-.26.32,0,.43ZM1098.03,398.56c-3.34-1.36-3.04-1.06-4.4-4.4-.03-.1-.11-.18-.22-.2-.1.02-.19.1-.21.2-1.37,3.34-1.06,3.04-4.41,4.4h0c-.26.11-.26.32,0,.43,3.35,1.36,3.04,1.06,4.41,4.4.02.1.11.18.21.2.11-.02.19-.1.22-.2,1.36-3.34,1.06-3.04,4.4-4.4.27-.11.27-.32,0-.43ZM1109.62,375.17c-3.26-1.33-2.97-1.04-4.3-4.29-.02-.1-.11-.18-.21-.2-.11.02-.19.1-.22.2-1.33,3.26-1.04,2.97-4.29,4.29h0c-.27.11-.27.32,0,.43,3.25,1.33,2.96,1.04,4.29,4.29.03.1.11.18.22.2.1-.02.19-.1.21-.2,1.33-3.26,1.04-2.97,4.3-4.29.26-.11.26-.32,0-.43ZM1081.72,426.21c.1-.02.19-.1.21-.2,1.11-2.74.89-2.52,3.63-3.63.27-.11.27-.32,0-.43-2.74-1.11-2.52-.89-3.63-3.63-.02-.1-.11-.18-.21-.2-.11.02-.19.1-.22.2-1.11,2.74-.88,2.52-3.63,3.63h0c-.11,0-.19.09-.2.2,0,.12.09.22.21.23,2.75,1.11,2.52.89,3.63,3.63.03.1.11.18.22.2h-.01ZM1076.83,637.55c0,.11.09.19.2.2,3.39,1.38,3.08,1.07,4.46,4.46.03.1.11.18.22.2.1-.02.19-.1.21-.2,1.39-3.39,1.08-3.08,4.46-4.46.27-.11.27-.32,0-.43-3.38-1.38-3.07-1.07-4.46-4.46-.02-.1-.11-.18-.21-.2-.11.02-.19.1-.22.2-1.38,3.39-1.07,3.08-4.46,4.46-.12,0-.21.11-.2.23ZM1077.68,625.87c.01.1.09.17.19.19,2.75,1.11,2.52.89,3.63,3.63.03.1.11.18.22.2.1-.02.19-.1.21-.2,1.11-2.74.89-2.52,3.63-3.63.27-.11.27-.32,0-.43-2.74-1.11-2.52-.89-3.63-3.63-.02-.1-.11-.18-.21-.2-.11.02-.19.1-.22.2-1.11,2.74-.88,2.52-3.63,3.63-.12.02-.2.13-.19.24ZM1089.4,410.69c2.87,1.17,2.63.93,3.8,3.8.02.1.11.18.21.2.11-.02.19-.1.22-.2,1.16-2.88.92-2.63,3.79-3.8.27-.11.27-.32,0-.43-2.87-1.16-2.63-.92-3.79-3.79-.03-.1-.11-.18-.22-.2-.1.02-.19.1-.21.2-1.17,2.87-.93,2.63-3.8,3.79h0c-.26.11-.26.32,0,.43ZM1093.4,654.04c.11-.02.19-.1.22-.2,1.36-3.34,1.06-3.04,4.4-4.4.27-.11.27-.32,0-.43-3.34-1.36-3.04-1.06-4.4-4.4-.03-.1-.11-.18-.22-.2-.1.02-.19.1-.21.2-1.37,3.34-1.06,3.04-4.41,4.4-.26.11-.26.32,0,.43,3.35,1.36,3.04,1.06,4.41,4.4h0c.02.1.11.18.21.2ZM1089.39,637.74c2.87,1.17,2.63.92,3.8,3.8h0c.02.11.11.18.21.2.11-.02.19-.1.22-.2,1.16-2.87.92-2.63,3.79-3.8.27-.11.27-.32,0-.43-2.87-1.16-2.63-.92-3.79-3.8-.03-.1-.11-.18-.22-.2-.1.02-.19.1-.21.2-1.17,2.87-.93,2.63-3.8,3.8-.26.11-.26.32,0,.43ZM1065.97,235.13c2.96,1.21,2.71.95,3.91,3.91.03.1.11.18.22.2.1-.02.19-.1.21-.2,1.2-2.96.95-2.71,3.91-3.91h0c.26-.1.26-.31,0-.43-2.96-1.21-2.71-.95-3.91-3.91-.02-.1-.11-.18-.21-.2-.11.02-.19.1-.22.2-1.2,2.96-.95,2.71-3.91,3.91-.26.11-.26.32,0,.43ZM1086.39,410.26c-3.38-1.38-3.07-1.07-4.46-4.46-.02-.1-.11-.18-.21-.2-.11.02-.19.1-.22.2-1.38,3.39-1.07,3.08-4.46,4.46h0c-.12,0-.21.1-.21.22s.1.21.22.21c3.39,1.38,3.08,1.07,4.46,4.46.03.1.11.18.22.2.1-.02.19-.1.21-.2,1.39-3.39,1.08-3.08,4.46-4.46.27-.11.27-.32,0-.43h-.01ZM984.12,188.35c2.95,1.21,2.7.95,3.9,3.91.03.1.11.18.22.2.1-.02.19-.1.21-.2,1.2-2.96.95-2.71,3.91-3.91h0c.26-.1.26-.31,0-.43-2.96-1.2-2.71-.95-3.91-3.91-.02-.1-.11-.18-.21-.2-.11.02-.19.1-.22.2-1.2,2.96-.95,2.71-3.9,3.91-.11,0-.19.09-.2.2,0,.12.08.22.2.23ZM972.4,176.73c2.87,1.17,2.63.93,3.8,3.8.02.1.11.18.21.2.11-.02.19-.1.22-.2,1.16-2.88.92-2.64,3.79-3.8h0c.27-.1.27-.31,0-.43-2.87-1.17-2.63-.93-3.79-3.8-.03-.1-.11-.18-.22-.2-.1.02-.19.1-.21.2-1.17,2.88-.93,2.63-3.8,3.8-.26.11-.26.32,0,.43ZM996.03,188.35c2.79,1.13,2.56.9,3.69,3.68.02.1.11.18.21.2.11-.02.19-.1.22-.2,1.13-2.78.89-2.56,3.68-3.68h0c.26-.1.26-.31,0-.43-2.79-1.13-2.55-.9-3.68-3.68-.03-.1-.11-.18-.22-.2-.1.02-.19.1-.21.2-1.13,2.79-.9,2.56-3.69,3.68-.26.11-.26.32,0,.43ZM1018.59,200.05c3.43,1.4,3.11,1.09,4.51,4.51.01.11.09.19.2.2.12,0,.23-.08.24-.2,1.4-3.43,1.08-3.11,4.51-4.51h0c.26-.1.26-.31,0-.43-3.43-1.4-3.11-1.08-4.51-4.51-.01-.11-.09-.19-.2-.2-.12,0-.23.08-.24.2-1.4,3.43-1.08,3.11-4.51,4.51-.27.11-.27.32,0,.43ZM948.73,165.04c3.09,1.26,2.82.99,4.07,4.07,0,.11.09.19.2.2.12,0,.22-.08.23-.2,1.26-3.09.99-2.82,4.07-4.07v.02c.26-.11.26-.32,0-.45-3.08-1.26-2.82-.99-4.07-4.07,0-.11-.09-.19-.2-.2-.12,0-.22.08-.23.2-1.26,3.09-.99,2.82-4.07,4.07-.26.11-.26.32,0,.43ZM971.78,188.43c3.35,1.36,3.04,1.06,4.41,4.4.02.1.11.18.21.2.11-.02.19-.1.22-.2,1.36-3.34,1.06-3.04,4.4-4.4h0c.27-.1.27-.3,0-.43-3.34-1.36-3.04-1.06-4.4-4.4-.03-.1-.11-.18-.22-.2-.1.02-.19.1-.21.2-1.37,3.34-1.06,3.04-4.41,4.4-.26.11-.26.32,0,.43ZM960.03,176.73c3.39,1.38,3.08,1.07,4.46,4.46.03.1.11.18.22.2.1-.02.19-.1.21-.2,1.39-3.39,1.08-3.08,4.46-4.46h0c.27-.1.27-.31,0-.43-3.38-1.38-3.07-1.07-4.46-4.46-.02-.1-.11-.18-.21-.2-.11.02-.19.1-.22.2-1.38,3.39-1.07,3.08-4.46,4.46-.1,0-.19.09-.2.2-.01.12.08.23.2.24h0ZM1065.59,246.82c3.25,1.33,2.96,1.04,4.29,4.29.03.1.11.18.22.2.1-.02.19-.1.21-.2,1.33-3.26,1.04-2.97,4.3-4.29h0c.26-.11.26-.31,0-.43-3.26-1.33-2.97-1.04-4.3-4.29-.02-.1-.11-.18-.21-.2-.11.02-.19.1-.22.2-1.33,3.26-1.04,2.97-4.29,4.29-.27.11-.27.32,0,.43ZM1077.03,293.74c3.39,1.38,3.08,1.07,4.46,4.46.03.1.11.18.22.2.1-.02.19-.1.21-.2,1.39-3.39,1.08-3.08,4.46-4.46h0c.27-.11.27-.31,0-.43-3.38-1.38-3.07-1.07-4.46-4.46-.02-.1-.11-.18-.21-.2-.11.02-.19.1-.22.2-1.38,3.39-1.07,3.08-4.46,4.46-.1,0-.19.09-.2.2-.01.12.08.23.2.24h0ZM1077.86,282.05c2.75,1.11,2.52.89,3.63,3.63.03.1.11.18.22.2.1-.02.19-.1.21-.2,1.11-2.74.89-2.52,3.63-3.63h0c.27-.1.27-.31,0-.43-2.74-1.11-2.52-.89-3.63-3.63-.02-.1-.11-.18-.21-.2-.11.02-.19.1-.22.2-1.11,2.74-.88,2.52-3.63,3.63-.1.01-.18.09-.19.19-.01.12.07.23.19.24ZM1053.78,223.43c3.35,1.36,3.04,1.06,4.41,4.4.02.1.11.18.21.2.11-.02.19-.1.22-.2,1.36-3.34,1.06-3.04,4.4-4.4h0c.27-.11.27-.31,0-.43-3.34-1.36-3.04-1.06-4.4-4.4-.03-.1-.11-.18-.22-.2-.1.02-.19.1-.21.2-1.37,3.34-1.06,3.04-4.41,4.4-.26.11-.26.32,0,.43ZM1054.39,211.74c2.87,1.17,2.63.93,3.8,3.8.02.1.11.18.21.2.11-.02.19-.1.22-.2,1.16-2.88.92-2.64,3.79-3.8h0c.27-.1.27-.31,0-.43-2.87-1.17-2.63-.92-3.79-3.79-.03-.1-.11-.18-.22-.2-.1.02-.19.1-.21.2-1.17,2.87-.93,2.63-3.8,3.79-.26.11-.26.32,0,.43ZM1088.78,305.44c3.35,1.36,3.04,1.06,4.41,4.4.02.1.11.18.21.2.11-.02.19-.1.22-.2,1.36-3.34,1.06-3.04,4.4-4.4h0c.27-.11.27-.31,0-.43-3.34-1.36-3.04-1.06-4.4-4.4-.03-.1-.11-.18-.22-.2-.1.02-.19.1-.21.2-1.37,3.34-1.06,3.04-4.41,4.4-.26.11-.26.32,0,.43ZM1100.59,328.83c3.25,1.33,2.96,1.03,4.29,4.29.03.1.11.18.22.2.1-.02.19-.1.21-.2,1.33-3.26,1.04-2.97,4.3-4.29h0c.26-.11.26-.32,0-.43-3.26-1.33-2.97-1.04-4.3-4.29-.02-.1-.11-.18-.21-.2-.11.02-.19.1-.22.2-1.33,3.26-1.04,2.97-4.29,4.29-.27.11-.27.32,0,.43ZM1007.95,188.35c2.61,1.06,2.4.85,3.46,3.46,0,.1.09.18.19.19.12,0,.22-.08.24-.19,1.06-2.62.85-2.41,3.46-3.46h0c.27-.1.27-.31,0-.43-2.61-1.06-2.4-.85-3.46-3.46-.03-.1-.11-.18-.21-.2-.11.02-.19.1-.22.2-1.06,2.62-.85,2.41-3.46,3.46-.27.11-.27.32,0,.43ZM1089.39,293.74c2.87,1.17,2.63.93,3.8,3.8.02.1.11.18.21.2.11-.02.19-.1.22-.2,1.16-2.88.92-2.64,3.79-3.8h0c.27-.11.27-.31,0-.43-2.87-1.17-2.63-.93-3.79-3.8-.03-.1-.11-.18-.22-.2-.1.02-.19.1-.21.2-1.17,2.88-.93,2.64-3.8,3.8-.26.11-.26.32,0,.43ZM960.86,165.04c2.75,1.11,2.52.89,3.63,3.63.03.1.11.18.22.2.1-.02.19-.1.21-.2,1.11-2.74.89-2.52,3.63-3.63h0c.27-.1.27-.3,0-.43-2.74-1.11-2.52-.89-3.63-3.63-.02-.1-.11-.18-.21-.2-.11.02-.19.1-.22.2-1.11,2.74-.88,2.52-3.63,3.63-.1,0-.17.09-.19.19-.02.12.07.23.19.24h0ZM172.75,894.64c-2.45-.98-2.26-.8-3.24-3.24h0c-.03-.11-.11-.18-.21-.2-.11.02-.19.1-.22.2-.98,2.45-.8,2.26-3.24,3.24-.1.03-.18.11-.2.21.02.11.1.19.2.22,2.45.98,2.26.8,3.24,3.24,0,.12.11.21.23.2.11,0,.19-.09.2-.2.98-2.45.8-2.26,3.24-3.24.26-.11.26-.32,0-.43h0ZM150.57,871.25c-3.38-1.38-3.08-1.07-4.46-4.46h0c0-.12-.12-.21-.24-.2-.1,0-.19.09-.2.2-1.38,3.39-1.07,3.08-4.46,4.46-.26.11-.26.32,0,.43,3.39,1.38,3.08,1.07,4.46,4.46,0,.12.12.21.24.2.1,0,.19-.09.2-.2,1.38-3.39,1.07-3.08,4.46-4.46.12-.01.21-.12.2-.24,0-.1-.09-.19-.2-.2h0ZM149.74,882.95c-2.74-1.11-2.52-.89-3.63-3.63h0c-.02-.1-.11-.18-.22-.2-.1.02-.19.1-.21.2-1.11,2.74-.89,2.52-3.63,3.63-.26.11-.26.32,0,.43,2.74,1.11,2.52.89,3.63,3.63.03.1.11.18.21.2.1-.02.19-.1.22-.2,1.11-2.74.89-2.52,3.63-3.63.12-.01.21-.12.19-.24,0-.1-.09-.18-.19-.19ZM138.82,859.56c-3.34-1.36-3.03-1.06-4.4-4.4h0c0-.12-.12-.21-.24-.2-.1,0-.19.09-.2.2-1.36,3.34-1.06,3.04-4.4,4.4-.26.11-.26.32,0,.43,3.34,1.36,3.04,1.06,4.4,4.4,0,.12.12.21.24.2.1,0,.19-.09.2-.2,1.36-3.34,1.06-3.04,4.4-4.4.26-.11.26-.32,0-.43ZM138.22,871.26c-2.88-1.17-2.64-.93-3.8-3.8h0c0-.12-.12-.21-.24-.2-.1,0-.18.09-.19.19-1.17,2.87-.92,2.63-3.8,3.8-.26.11-.26.32,0,.43,2.87,1.16,2.63.92,3.8,3.8,0,.12.12.21.24.19.1,0,.18-.09.19-.19,1.16-2.87.92-2.63,3.8-3.8.26-.11.26-.32,0-.43h0ZM933.31,894.64c-2.62-1.05-2.41-.84-3.47-3.46h0c0-.12-.11-.21-.23-.2-.11,0-.19.09-.2.2-1.06,2.62-.85,2.41-3.47,3.46-.26.11-.26.32,0,.43,2.62,1.06,2.41.85,3.47,3.46.02.1.11.18.21.2.1-.02.19-.1.22-.2,1.06-2.62.85-2.41,3.46-3.46.26-.11.26-.32,0-.43h0ZM161.87,882.95c-3.08-1.26-2.82-.99-4.07-4.07,0-.12-.11-.21-.23-.2-.11,0-.19.09-.2.2-1.26,3.09-.99,2.82-4.07,4.07-.26.11-.26.32,0,.43,3.09,1.26,2.82.99,4.07,4.07,0,.12.11.21.23.2.11,0,.19-.09.2-.2,1.26-3.09.99-2.82,4.07-4.07.26-.11.26-.32,0-.43ZM56.22,836.26c-2.88-1.17-2.64-.93-3.8-3.8h0c0-.12-.11-.21-.23-.2-.11,0-.19.09-.2.2-1.16,2.87-.92,2.63-3.8,3.8-.26.11-.26.32,0,.43,2.87,1.16,2.63.92,3.8,3.8,0,.12.11.21.23.2.11,0,.19-.09.2-.2,1.16-2.87.92-2.63,3.8-3.8.26-.11.26-.32,0-.43ZM67.74,847.95c-2.74-1.11-2.52-.89-3.63-3.63h0c-.03-.1-.11-.18-.22-.2-.1.02-.19.1-.21.2-1.11,2.74-.89,2.52-3.63,3.63-.26.11-.26.32,0,.43,2.74,1.11,2.52.89,3.63,3.63.03.1.11.18.21.2.1-.02.19-.1.22-.2,1.11-2.74.89-2.52,3.63-3.63.12-.01.21-.12.19-.24,0-.1-.09-.18-.19-.19ZM56.82,824.56c-3.34-1.36-3.04-1.06-4.4-4.4,0-.12-.12-.21-.24-.2-.1,0-.19.09-.2.2-1.36,3.34-1.06,3.04-4.4,4.4-.26.11-.26.32,0,.43,3.34,1.36,3.04,1.06,4.4,4.4,0,.12.12.21.24.2.1,0,.19-.09.2-.2,1.36-3.34,1.06-3.04,4.4-4.4.26-.11.26-.32,0-.43ZM45.02,801.17c-3.26-1.33-2.97-1.04-4.29-4.29,0-.12-.12-.21-.24-.2-.1,0-.19.09-.2.2-1.33,3.26-1.03,2.97-4.29,4.29-.26.11-.26.32,0,.43,3.26,1.33,2.97,1.04,4.29,4.29,0,.12.12.21.24.2.1,0,.19-.09.2-.2,1.33-3.26,1.04-2.97,4.29-4.29.26-.11.26-.32,0-.43ZM33.57,754.25c-3.39-1.38-3.08-1.07-4.46-4.46-.01-.12-.12-.21-.24-.2-.1,0-.19.09-.2.2-1.38,3.39-1.07,3.08-4.46,4.46-.26.11-.26.32,0,.43,3.39,1.38,3.08,1.07,4.46,4.46.01.12.12.21.24.2.1,0,.19-.09.2-.2,1.38-3.39,1.07-3.08,4.46-4.46.12-.01.21-.12.2-.24,0-.1-.09-.19-.2-.2h0ZM44.63,812.86c-2.96-1.2-2.71-.95-3.91-3.91h0c0-.12-.11-.21-.23-.2-.11,0-.19.09-.2.2-1.2,2.96-.95,2.71-3.91,3.91-.26.11-.26.32,0,.43,2.96,1.2,2.71.95,3.91,3.91,0,.12.11.21.23.2.11,0,.19-.09.2-.2,1.2-2.96.95-2.71,3.91-3.91.26-.11.26-.32,0-.43ZM102.66,859.64c-2.62-1.05-2.41-.84-3.46-3.46h0c0-.12-.11-.21-.23-.2-.11,0-.19.09-.2.2-1.06,2.62-.85,2.41-3.46,3.46-.26.11-.26.32,0,.43,2.62,1.06,2.41.85,3.46,3.46,0,.12.11.21.23.2.11,0,.19-.09.2-.2,1.06-2.62.85-2.41,3.46-3.46.26-.11.26-.32,0-.43ZM126.49,859.64c-2.96-1.2-2.71-.95-3.91-3.9h0c-.03-.11-.11-.18-.22-.2-.11.02-.19.1-.21.2-1.2,2.96-.95,2.7-3.91,3.91-.26.11-.26.32,0,.43,2.96,1.2,2.71.95,3.91,3.91.03.1.11.18.21.2.1-.02.19-.1.22-.2,1.2-2.96.95-2.7,3.91-3.91.1-.03.18-.11.2-.22-.02-.11-.1-.19-.2-.22ZM92.02,847.95c-3.43-1.4-3.11-1.09-4.51-4.52-.01-.12-.12-.21-.24-.2-.1,0-.19.09-.2.2-1.4,3.43-1.09,3.12-4.52,4.52-.26.11-.26.32,0,.43,3.43,1.4,3.11,1.09,4.52,4.51.03.1.11.18.22.2.11-.02.19-.1.22-.2,1.4-3.43,1.09-3.11,4.51-4.51.27-.11.27-.32,0-.43ZM114.57,859.64c-2.79-1.13-2.56-.9-3.68-3.68h0c-.01-.12-.12-.21-.24-.2-.1,0-.18.09-.19.19-1.13,2.79-.9,2.56-3.69,3.68-.26.11-.26.32,0,.43,2.79,1.13,2.56.9,3.69,3.69.03.1.11.18.22.2.1-.02.19-.1.21-.2,1.13-2.79.9-2.56,3.68-3.69.26-.11.26-.32,0-.43h0ZM68.57,836.25c-3.38-1.38-3.08-1.07-4.46-4.46h0c-.01-.12-.12-.21-.24-.2-.1,0-.19.09-.2.2-1.38,3.39-1.07,3.08-4.46,4.46-.26.11-.26.32,0,.43,3.39,1.38,3.08,1.07,4.46,4.46,0,.12.12.21.24.2.1,0,.19-.09.2-.2,1.38-3.39,1.07-3.08,4.46-4.46.12,0,.21-.11.2-.23,0-.11-.09-.19-.2-.2ZM90.75,859.64c-2.45-.98-2.26-.8-3.24-3.24h0c-.03-.11-.11-.18-.21-.2-.11.02-.19.1-.22.2-.98,2.45-.8,2.26-3.24,3.24-.1.03-.18.11-.2.21.02.11.1.19.2.22,2.45.98,2.26.8,3.24,3.24,0,.12.11.21.23.2.11,0,.19-.09.2-.2.98-2.45.8-2.26,3.24-3.24.26-.11.26-.32,0-.43ZM79.87,847.95c-3.08-1.26-2.82-.99-4.07-4.07,0-.12-.11-.21-.23-.2-.11,0-.19.09-.2.2-1.26,3.09-.99,2.82-4.07,4.07-.26.11-.26.32,0,.43,3.09,1.26,2.82.99,4.07,4.07,0,.12.11.21.23.2.11,0,.19-.09.2-.2,1.26-3.09.99-2.82,4.07-4.07.26-.11.26-.32,0-.43ZM957.31,882.94c-3.09-1.25-2.82-.98-4.07-4.07h0c0-.12-.11-.21-.23-.21-.11,0-.19.09-.2.2-1.26,3.09-.99,2.82-4.07,4.07-.26.11-.26.32,0,.43,3.09,1.26,2.82.99,4.07,4.07,0,.12.11.21.23.2.11,0,.19-.09.2-.2,1.26-3.09.99-2.82,4.07-4.07.26-.11.26-.32,0-.43h0ZM1085.55,765.94c-2.74-1.11-2.52-.88-3.63-3.63h0c-.02-.11-.11-.18-.21-.2-.11.02-.19.1-.22.2-1.11,2.74-.88,2.52-3.63,3.63-.12.02-.2.13-.19.24.01.1.09.17.19.19,2.75,1.11,2.52.89,3.63,3.63.03.1.11.18.22.2.1-.02.19-.1.21-.2,1.11-2.74.89-2.52,3.63-3.63.27-.11.27-.32,0-.43ZM1074.22,812.86c-2.96-1.2-2.71-.94-3.91-3.9h0c-.02-.11-.11-.19-.21-.2-.11.02-.19.1-.22.2-1.2,2.96-.95,2.71-3.91,3.91-.26.11-.26.32,0,.43,2.96,1.2,2.71.95,3.91,3.91.03.1.11.18.22.2.1-.02.19-.1.21-.2,1.2-2.96.95-2.71,3.91-3.91.26-.11.26-.32,0-.43h0ZM1050.55,847.94c-2.74-1.11-2.52-.88-3.63-3.63h0c-.02-.1-.11-.18-.21-.2-.11.02-.19.1-.22.2-1.11,2.74-.88,2.52-3.63,3.63-.12.02-.2.13-.19.24.01.1.09.17.19.19,2.75,1.11,2.52.89,3.63,3.63.03.1.11.18.22.2.1-.02.19-.1.21-.2,1.11-2.74.89-2.52,3.63-3.63.27-.11.27-.32,0-.43ZM1063.02,824.55c-3.34-1.35-3.04-1.05-4.4-4.4h0c-.03-.1-.11-.18-.22-.2-.1.02-.19.1-.21.2-1.37,3.34-1.06,3.04-4.41,4.4-.26.11-.26.32,0,.43,3.35,1.36,3.04,1.06,4.41,4.4.02.1.11.18.21.2.11-.02.19-.1.22-.2,1.36-3.34,1.06-3.04,4.4-4.4.27-.11.27-.32,0-.43ZM1051.38,836.25c-3.38-1.38-3.07-1.07-4.46-4.46h0c-.02-.11-.11-.19-.21-.2-.11.02-.19.1-.22.2-1.38,3.39-1.07,3.08-4.46,4.46-.12,0-.21.11-.2.23,0,.11.09.19.2.2,3.39,1.38,3.08,1.07,4.46,4.46.03.1.11.18.22.2.1-.02.19-.1.21-.2,1.39-3.39,1.08-3.08,4.46-4.46.27-.11.27-.32,0-.43ZM1062.41,836.25c-2.87-1.17-2.63-.93-3.79-3.8h0c-.03-.11-.11-.18-.22-.2-.1.02-.19.1-.21.2-1.17,2.87-.93,2.63-3.8,3.8-.26.11-.26.32,0,.43,2.87,1.16,2.63.92,3.8,3.8.02.1.11.18.21.2.11-.02.19-.1.22-.2,1.16-2.87.92-2.63,3.79-3.8.27-.11.27-.32,0-.43ZM1074.61,801.17c-3.26-1.32-2.97-1.03-4.3-4.29h0c-.02-.11-.11-.19-.21-.2-.11.02-.19.1-.22.2-1.33,3.26-1.04,2.97-4.29,4.29-.27.11-.27.32,0,.43,3.25,1.33,2.96,1.04,4.29,4.29.03.1.11.18.22.2.1-.02.19-.1.21-.2,1.33-3.26,1.04-2.97,4.3-4.29.26-.11.26-.32,0-.43ZM1109.61,719.16c-3.26-1.32-2.97-1.03-4.3-4.29h0c-.02-.11-.11-.19-.21-.21-.11.02-.19.1-.22.2-1.33,3.26-1.04,2.97-4.29,4.29-.27.11-.27.32,0,.43,3.25,1.33,2.96,1.04,4.29,4.29.03.1.11.18.22.2.1-.02.19-.1.21-.2,1.33-3.26,1.04-2.97,4.3-4.29.26-.11.26-.32,0-.43h0ZM1109.22,730.86c-2.96-1.19-2.71-.94-3.91-3.9h0c-.02-.11-.11-.19-.21-.21-.11.02-.19.1-.22.2-1.2,2.96-.95,2.71-3.91,3.91-.26.11-.26.32,0,.43,2.96,1.2,2.71.95,3.91,3.91.03.1.11.18.22.2.1-.02.19-.1.21-.2,1.2-2.96.95-2.71,3.91-3.91.26-.11.26-.32,0-.43h0ZM1110.58,696c-.02.11-.1.19-.2.22-3.86,1.58-3.49,1.21-5.07,5.07,0,.1-.09.18-.19.19-.12.01-.22-.08-.24-.19-1.53-3.74-1.23-3.51-4.74-4.93-4.58,1.88-4.45,1.63-6.15,5.8,1.55,3.79,1.43,3.5,5.86,5.32.07.03.13.08.17.14.04-.06.11-.11.18-.14,3.56-1.45,3.23-1.12,4.68-4.68.03-.1.11-.18.22-.2.1.02.19.1.21.2,1.46,3.56,1.13,3.23,4.68,4.68.11,0,.19.09.2.2,0,.12-.08.22-.2.23-3.55,1.45-3.22,1.12-4.68,4.68-.02.1-.11.18-.21.2-.11-.02-.19-.1-.22-.2-1.45-3.56-1.12-3.23-4.68-4.68-.07-.03-.14-.07-.18-.14-.04.07-.1.12-.17.14-4.66,1.92-4.29,1.5-6.11,5.93,1.62,3.97,1.32,3.61,5.5,5.33.26.11.26.32,0,.43-4.29,1.76-3.86,1.34-5.62,5.62-.03.1-.11.18-.22.2-.1-.02-.19-.1-.21-.2-1.67-4.05-1.38-3.89-4.97-5.35-4.32,1.77-4.23,1.63-5.92,5.78,1.51,3.71,1.4,3.42,5.74,5.21.02,0,.05.02.07.04l.06-.03c3.82-1.56,3.45-1.2,5.02-5.01.02-.1.11-.18.21-.2.11.02.19.1.22.2,1.56,3.81,1.2,3.45,5.01,5.01.27.11.27.32,0,.43-3.81,1.56-3.45,1.2-5.01,5.01-.03.1-.11.18-.22.2-.1-.02-.19-.1-.21-.2-1.57-3.81-1.2-3.45-5.02-5.01l-.06-.03s-.05.03-.07.03c-4.64,1.91-4.2,1.46-6.08,6.05,1.61,3.95,1.25,3.57,5.25,5.21.27.11.27.32,0,.43-4.02,1.65-3.63,1.26-5.29,5.29-.02.1-.11.18-.21.2-.11-.02-.19-.1-.22-.2-1.64-3.99-1.27-3.65-5.19-5.25-4.59,1.89-4.14,1.46-6.06,6.11,1.59,3.88,1.22,3.5,5.11,5.1.27.11.27.32,0,.43-3.9,1.6-3.52,1.22-5.12,5.12,0,.1-.09.18-.19.19-.12.01-.22-.08-.24-.19-1.6-3.9-1.23-3.52-5.13-5.12-.07-.03-.13-.08-.17-.14-.02.02-.04.04-.07.05,0,.11-.08.21-.19.23-4.18,1.72-3.88,1.36-5.5,5.33,1.82,4.43,1.45,4.02,6.11,5.93.07.03.13.08.17.14.04-.07.11-.12.18-.14,3.56-1.45,3.23-1.12,4.68-4.68.03-.1.11-.18.22-.2.1.02.19.1.21.2,1.46,3.56,1.13,3.23,4.68,4.68.1,0,.19.09.2.2.01.12-.08.23-.2.24-3.55,1.45-3.22,1.12-4.68,4.68-.02.1-.11.18-.21.2-.11-.01-.19-.09-.22-.2-1.45-3.56-1.12-3.23-4.68-4.68-.07-.03-.14-.07-.18-.14-.04.07-.1.11-.17.14-4.43,1.82-4.31,1.53-5.86,5.32,1.7,4.17,1.57,3.92,6.15,5.8,3.51-1.43,3.21-1.19,4.74-4.93.03-.1.11-.18.22-.2.1.02.19.1.21.2,1.58,3.86,1.21,3.49,5.07,5.07.11,0,.19.09.2.2,0,.12-.08.22-.2.23-3.86,1.58-3.49,1.21-5.07,5.07,0,.1-.09.18-.19.19-.12.01-.22-.08-.24-.19-1.53-3.74-1.23-3.51-4.74-4.93-4.58,1.88-4.45,1.63-6.15,5.8,1.55,3.79,1.43,3.5,5.86,5.32.07.03.13.07.17.14.04-.07.11-.11.18-.14,3.56-1.45,3.23-1.12,4.68-4.68.03-.1.11-.18.22-.2.1.02.19.1.21.2,1.46,3.56,1.13,3.23,4.68,4.68.11,0,.19.09.2.2,0,.12-.08.22-.2.23-3.55,1.45-3.22,1.12-4.68,4.68-.02.1-.11.18-.21.2-.11-.02-.19-.1-.22-.2-1.45-3.56-1.12-3.23-4.68-4.68-.07-.03-.14-.07-.18-.14-.04.07-.1.11-.17.14-4.66,1.92-4.29,1.5-6.11,5.93,1.62,3.97,1.32,3.6,5.5,5.32.26.11.26.32,0,.43-4.29,1.76-3.86,1.34-5.62,5.62-.03.1-.11.18-.22.2-.1-.02-.19-.1-.21-.2-1.67-4.05-1.38-3.89-4.97-5.35-4.32,1.77-4.23,1.63-5.92,5.78,1.51,3.71,1.4,3.42,5.74,5.21.02,0,.05.02.07.03l.06-.03c3.82-1.56,3.45-1.2,5.02-5.01.02-.1.11-.18.21-.2.11.02.19.1.22.2,1.56,3.81,1.2,3.45,5.01,5.01.27.11.27.32,0,.43-3.81,1.56-3.45,1.2-5.01,5.01-.03.1-.11.18-.22.2-.1-.02-.19-.1-.21-.2-1.57-3.81-1.2-3.45-5.02-5.01l-.06-.03s-.05.03-.07.03c-4.64,1.91-4.2,1.46-6.08,6.05,1.61,3.95,1.25,3.57,5.25,5.21.27.11.27.32,0,.43-4.02,1.65-3.63,1.26-5.29,5.29-.02.1-.11.18-.21.2-.11-.02-.19-.1-.22-.2-1.64-3.99-1.27-3.65-5.19-5.25-4.59,1.89-4.14,1.46-6.06,6.11,1.59,3.88,1.22,3.5,5.11,5.1.27.11.27.32,0,.43-3.9,1.6-3.52,1.22-5.12,5.12,0,.1-.09.18-.19.19-.12.01-.22-.08-.24-.19-1.6-3.9-1.23-3.52-5.13-5.12-.07-.03-.13-.08-.17-.14-.04.07-.11.12-.18.14-4.41,1.82-3.97,1.37-5.78,5.79-.03.1-.12.18-.22.2-.1-.02-.19-.1-.22-.2-1.74-4.24-1.4-4-5.29-5.59-4.39,1.79-4.01,1.5-5.94,6.18,1.51,3.69,1.18,3.35,4.93,4.88.26.11.26.32,0,.43-3.77,1.54-3.41,1.19-4.96,4.96-.03.1-.11.18-.21.2-.11-.02-.19-.1-.22-.2-1.55-3.77-1.19-3.41-4.96-4.96-.26-.11-.26-.32,0-.43,3.75-1.53,3.42-1.19,4.93-4.88-1.83-4.42-1.59-4.4-5.27-5.9-4.03,1.65-3.91,1.63-5.7,6.02,1.4,3.44,1.25,3.17,5.14,4.77.1,0,.19.09.2.2.01.12-.08.23-.2.24-4.12,1.69-3.71,1.29-5.4,5.4-.01.11-.09.19-.2.2-.12.01-.23-.08-.24-.2-1.68-4.12-1.28-3.71-5.4-5.4h-.01c-4.46,1.83-4.01,1.39-5.85,5.84-.02.1-.11.18-.21.2-.11-.02-.19-.1-.22-.2-1.83-4.46-1.39-4.01-5.84-5.84h-.02c-4.11,1.69-3.71,1.29-5.4,5.4-.03.1-.11.18-.22.2-.1-.02-.19-.1-.21-.2-1.69-4.12-1.29-3.71-5.4-5.4-.01,0-.02-.01-.03-.02-4.48,1.84-4.08,1.45-5.94,5.99,1.61,3.95,1.25,3.57,5.25,5.21.27.11.27.32,0,.43-4.02,1.65-3.63,1.26-5.29,5.29-.02.1-.11.18-.21.2-.11-.02-.19-.1-.22-.2-1.64-3.99-1.27-3.65-5.19-5.25-4.59,1.89-4.14,1.46-6.06,6.11,1.59,3.88,1.22,3.5,5.11,5.1.27.11.27.32,0,.43-3.9,1.6-3.52,1.22-5.12,5.12,0,.11-.09.19-.2.2-.12,0-.22-.08-.23-.2-1.6-3.9-1.22-3.52-5.12-5.12-.01-.07-.07-.12-.14-.14-.1-.02-.19.04-.21.14-.26.11-.49.2-.72.29-3.32,3.73-6.69,7.41-10.13,11.05.03-.03.06-.05.11-.07,3.43-1.4,3.11-1.09,4.51-4.51,0-.1.09-.19.2-.2.12-.01.23.08.24.2h0c1.4,3.43,1.09,3.12,4.52,4.51.26.11.26.32,0,.43-3.43,1.4-3.11,1.08-4.52,4.51-.03.1-.11.18-.22.2-.11-.02-.19-.1-.22-.2-1.4-3.43-1.08-3.11-4.51-4.51-.18-.08-.23-.2-.16-.3-3.64,3.86-7.34,7.69-11.11,11.46-48.12,48.12-104.16,85.9-166.56,112.3-64.6,27.33-133.23,41.18-203.97,41.18s-139.36-13.85-203.97-41.18c-62.19-26.3-118.06-63.92-166.07-111.82-.03.02-.06.05-.1.07-2.62,1.06-2.41.85-3.47,3.46-.02.1-.11.18-.21.2-.1-.02-.19-.1-.22-.2-1.06-2.62-.85-2.41-3.46-3.46-.26-.11-.26-.32,0-.43,2.62-1.06,2.41-.85,3.46-3.46,0-.06.03-.1.07-.14-2.43-2.48-4.84-4.98-7.22-7.5-3,1.21-2.77,1.07-4.11,4.35-.03.1-.11.18-.22.2-.11-.02-.19-.1-.22-.2-1.4-3.43-1.09-3.11-4.52-4.51-.26-.11-.26-.32,0-.43,3.37-1.38,3.13-1.1,4.45-4.35-2.09-2.27-4.17-4.56-6.22-6.86-3.75,1.53-3.41,1.22-4.99,5.07,0,.11-.09.19-.2.2-.12,0-.22-.08-.23-.2-1.6-3.9-1.22-3.52-5.12-5.12-.27-.11-.26-.32,0-.43,3.89-1.59,3.53-1.22,5.11-5.1-.19-.45-.34-.84-.49-1.2-1.15-1.34-2.29-2.68-3.42-4.02-.56-.25-1.26-.52-2.15-.89-3.92,1.6-3.55,1.25-5.19,5.25,0,.1-.09.19-.2.2-.12.01-.23-.08-.24-.2-1.65-4.03-1.26-3.64-5.29-5.29-.26-.11-.26-.32,0-.43,4-1.64,3.64-1.27,5.26-5.21-1.87-4.54-1.46-4.15-5.94-5.99,0,0-.02.02-.03.02-4.11,1.69-3.71,1.29-5.4,5.4,0,.1-.09.19-.2.2-.12.01-.23-.08-.24-.2-1.69-4.12-1.29-3.71-5.4-5.4h-.02c-4.46,1.83-4.01,1.39-5.84,5.84-.01.1-.09.19-.2.2-.12.01-.23-.08-.24-.2-1.83-4.46-1.39-4.01-5.84-5.84h-.02c-4.11,1.69-3.71,1.29-5.4,5.4,0,.1-.09.19-.2.2-.12.01-.23-.08-.24-.2-1.69-4.12-1.29-3.71-5.4-5.4-.1,0-.19-.09-.2-.2-.01-.12.08-.23.2-.24,3.89-1.6,3.74-1.33,5.14-4.77-1.8-4.39-1.68-4.37-5.71-6.02-3.68,1.5-3.44,1.47-5.27,5.9,1.51,3.69,1.18,3.35,4.93,4.88.26.11.26.32,0,.43-3.77,1.54-3.41,1.19-4.96,4.96,0,.11-.09.19-.2.2-.12,0-.22-.08-.23-.2-1.54-3.77-1.18-3.41-4.96-4.96-.26-.11-.26-.32,0-.43,3.74-1.53,3.42-1.19,4.93-4.88-1.93-4.68-1.55-4.38-5.93-6.18-3.89,1.59-3.56,1.34-5.3,5.59-.03.1-.11.18-.22.2-.11-.02-.19-.1-.22-.2-1.82-4.41-1.37-3.97-5.79-5.79-.01-.07-.07-.12-.14-.14-.1-.02-.19.04-.21.14-3.9,1.6-3.52,1.22-5.12,5.12,0,.11-.09.19-.2.2-.12,0-.22-.08-.23-.2-1.6-3.9-1.22-3.52-5.12-5.12-.27-.11-.26-.32,0-.43,3.89-1.59,3.53-1.22,5.11-5.1-1.92-4.66-1.47-4.22-6.07-6.11-3.92,1.6-3.55,1.25-5.19,5.25-.01.1-.09.19-.2.2-.12.01-.23-.08-.24-.2-1.65-4.03-1.26-3.64-5.29-5.29-.27-.11-.27-.32,0-.43,4-1.64,3.64-1.27,5.26-5.21-1.89-4.59-1.44-4.13-6.09-6.05-.02-.01-.04-.02-.07-.03l-.06.03c-3.81,1.56-3.45,1.2-5.01,5.01,0,.11-.09.19-.2.2-.12,0-.22-.08-.23-.2-1.56-3.81-1.2-3.45-5.01-5.01-.26-.11-.26-.32,0-.43,3.81-1.56,3.45-1.2,5.01-5.01,0-.11.09-.19.2-.2.12,0,.22.08.23.2,1.56,3.81,1.2,3.45,5.01,5.01l.06.03s.04-.02.07-.03c4.34-1.79,4.24-1.51,5.75-5.21-1.7-4.15-1.6-4.01-5.93-5.78-3.59,1.46-3.3,1.3-4.96,5.35-.03.1-.11.18-.22.2-.11-.02-.19-.1-.22-.2-1.76-4.28-1.34-3.86-5.62-5.62-.27-.11-.27-.32,0-.43,4.18-1.72,3.88-1.36,5.5-5.32-1.82-4.43-1.46-4.02-6.11-5.93-.07-.03-.13-.08-.18-.14-.04.06-.1.11-.17.14-3.56,1.45-3.23,1.12-4.68,4.68,0,.1-.09.19-.2.2-.12.01-.23-.08-.24-.2-1.45-3.56-1.12-3.23-4.68-4.68-.11,0-.19-.09-.2-.2,0-.12.08-.22.2-.23,3.56-1.45,3.23-1.12,4.68-4.68,0-.1.09-.19.2-.2.12-.01.23.08.24.2,1.45,3.56,1.12,3.23,4.68,4.68.07.03.13.08.17.14.04-.06.1-.11.18-.14,4.43-1.82,4.31-1.53,5.86-5.32-1.7-4.17-1.57-3.92-6.15-5.8-3.51,1.43-3.21,1.19-4.74,4.93,0,.11-.09.19-.2.2-.12,0-.22-.08-.23-.2-1.58-3.86-1.21-3.49-5.07-5.07-.11,0-.19-.09-.2-.2,0-.12.08-.22.2-.23,3.86-1.58,3.49-1.21,5.07-5.07,0-.11.09-.19.2-.2.12,0,.22.08.23.2,1.53,3.74,1.23,3.51,4.74,4.93,4.57-1.88,4.45-1.63,6.15-5.8-1.55-3.79-1.43-3.5-5.86-5.32-.07-.03-.13-.08-.17-.14-.04.06-.1.11-.17.14-3.56,1.45-3.23,1.12-4.68,4.68,0,.1-.09.19-.2.2-.12.01-.23-.08-.24-.2-1.45-3.56-1.12-3.23-4.68-4.68-.1,0-.19-.09-.2-.2,0-.12.08-.23.2-.24,3.56-1.45,3.23-1.12,4.68-4.68,0-.1.09-.19.2-.2.12-.01.23.08.24.2,1.45,3.56,1.12,3.23,4.68,4.68.07.03.13.08.17.14.04-.06.1-.11.17-.14,4.66-1.92,4.29-1.5,6.11-5.93-1.62-3.97-1.32-3.61-5.5-5.33-.11-.02-.19-.12-.19-.23-.02-.02-.05-.03-.07-.05-.04.06-.1.11-.17.14-3.9,1.6-3.52,1.22-5.12,5.12,0,.11-.09.19-.2.2-.12,0-.22-.08-.23-.2-1.6-3.9-1.22-3.52-5.12-5.12-.26-.11-.26-.32,0-.43,3.89-1.59,3.53-1.22,5.12-5.1-1.92-4.66-1.47-4.22-6.07-6.11-3.92,1.6-3.55,1.25-5.19,5.25,0,.1-.09.19-.2.2-.12.01-.23-.08-.24-.2-1.65-4.03-1.26-3.64-5.29-5.29-.27-.11-.27-.32,0-.43,4-1.64,3.64-1.27,5.26-5.21-1.89-4.59-1.44-4.13-6.09-6.05-.02-.01-.04-.02-.07-.03-.02.01-.04.02-.06.03-3.81,1.56-3.45,1.2-5.01,5.01,0,.11-.09.19-.2.2-.12,0-.22-.08-.23-.2-1.56-3.81-1.2-3.45-5.01-5.01-.26-.11-.26-.32,0-.43,3.81-1.56,3.45-1.2,5.01-5.01,0-.11.09-.19.2-.2.12,0,.22.08.23.2,1.56,3.81,1.2,3.45,5.01,5.01.02,0,.04.02.06.03.02-.01.04-.03.07-.04,4.35-1.79,4.24-1.51,5.75-5.21-1.7-4.15-1.6-4.01-5.93-5.78-3.58,1.46-3.3,1.3-4.96,5.35-.01.1-.09.19-.2.2-.12.01-.23-.08-.24-.2-1.76-4.28-1.34-3.86-5.62-5.62-.27-.11-.27-.32,0-.43,4.18-1.72,3.88-1.36,5.5-5.33-1.82-4.43-1.46-4.02-6.11-5.93-.07-.03-.13-.08-.18-.14-.04.06-.1.11-.17.14-3.56,1.45-3.23,1.12-4.68,4.68,0,.1-.09.19-.2.2-.12.01-.23-.08-.24-.2-1.45-3.56-1.12-3.23-4.68-4.68-.11,0-.19-.09-.2-.2,0-.12.08-.22.2-.23,3.56-1.45,3.23-1.12,4.68-4.68,0-.1.09-.19.2-.2.12-.01.23.08.24.2,1.45,3.56,1.12,3.23,4.68,4.68.07.03.13.08.17.14.04-.06.1-.11.18-.14,4.43-1.82,4.31-1.53,5.86-5.32-1.71-4.17-1.57-3.92-6.15-5.8-3.51,1.43-3.21,1.19-4.74,4.93,0,.11-.09.19-.2.2-.12,0-.22-.08-.23-.2-1.58-3.86-1.21-3.49-5.07-5.07-.1-.03-.18-.11-.2-.22.02-.11.1-.19.2-.22,3.86-1.58,3.49-1.21,5.07-5.07,0-.11.09-.19.2-.2.12,0,.22.08.23.2,1.53,3.74,1.23,3.51,4.74,4.93,4.57-1.88,4.45-1.63,6.15-5.8-1.55-3.79-1.43-3.5-5.86-5.32-.07-.03-.13-.08-.18-.14-.04.06-.1.11-.17.14-3.56,1.45-3.23,1.12-4.68,4.68,0,.1-.09.19-.2.2-.12.01-.23-.08-.24-.2-1.45-3.56-1.12-3.23-4.68-4.68-.1,0-.19-.09-.2-.2,0-.12.08-.23.2-.24,3.56-1.45,3.23-1.12,4.68-4.68,0-.1.09-.19.2-.2.12-.01.23.08.24.2,1.45,3.56,1.12,3.23,4.68,4.68.07.03.13.08.17.14.04-.06.1-.11.18-.14,4.65-1.92,4.29-1.5,6.11-5.93-1.62-3.97-1.32-3.6-5.5-5.32-.27-.11-.27-.32,0-.43,4.28-1.76,3.86-1.34,5.62-5.62.01-.1.09-.19.2-.2.12-.01.23.08.24.2,1.66,4.05,1.38,3.89,4.96,5.35,4.33-1.77,4.23-1.63,5.93-5.78-1.51-3.71-1.4-3.42-5.75-5.21-.02,0-.04-.02-.07-.03-.02.01-.04.02-.06.03-3.81,1.56-3.45,1.2-5.01,5.01,0,.11-.09.19-.2.2-.12,0-.22-.08-.23-.2-1.56-3.81-1.2-3.45-5.01-5.01-.26-.11-.26-.32,0-.43,3.81-1.56,3.45-1.2,5.01-5.01,0-.11.09-.19.2-.2.12,0,.22.08.23.2,1.56,3.81,1.2,3.45,5.01,5.01.02.01.04.02.06.03.02-.01.04-.03.07-.03,4.64-1.92,4.2-1.46,6.09-6.05-1.62-3.95-1.26-3.57-5.26-5.21-.27-.11-.27-.32,0-.43,4.03-1.65,3.64-1.26,5.29-5.29.01-.1.09-.19.2-.2.12-.01.23.08.24.2,1.64,3.99,1.27,3.65,5.19,5.25,4.6-1.89,4.15-1.46,6.07-6.11-1.59-3.88-1.22-3.5-5.12-5.1-.26-.11-.26-.32,0-.43,3.9-1.6,3.52-1.22,5.12-5.12,0-.1.09-.18.19-.19.12-.01.23.07.24.19.91,2.21,1.18,3.04,1.95,3.65-.5-2.3-.99-4.6-1.46-6.91-.14.33-.29.71-.48,1.18,0,.11-.09.19-.2.2-.12,0-.22-.08-.23-.2h0c-1.26-3.09-.99-2.82-4.07-4.07-.26-.11-.26-.32,0-.43,2.74-1.12,2.84-1.03,3.71-3.17-6.12-32.22-9.2-65.1-9.2-98.46s3.08-66.24,9.21-98.46c-.87-2.14-.96-2.05-3.71-3.17-.26-.11-.26-.32,0-.43h0c3.09-1.26,2.82-.99,4.07-4.08,0-.12.11-.21.23-.2.11,0,.19.09.2.2.19.47.34.85.48,1.18.47-2.31.96-4.61,1.46-6.91-.77.6-1.05,1.44-1.95,3.65,0,.12-.12.21-.24.19-.1-.01-.18-.09-.19-.19-1.6-3.9-1.22-3.53-5.12-5.12-.26-.11-.26-.32,0-.43,3.89-1.6,3.53-1.22,5.11-5.1-1.92-4.66-1.47-4.22-6.07-6.11-3.92,1.6-3.55,1.25-5.19,5.25-.01.12-.12.21-.24.2-.1-.01-.19-.09-.2-.2-1.65-4.03-1.26-3.64-5.29-5.29-.27-.11-.27-.32,0-.43,4-1.64,3.64-1.27,5.26-5.21-1.89-4.59-1.44-4.13-6.09-6.05-.02-.04-.07-.05-.11-.02,0,0-.02.01-.02.02-3.81,1.56-3.45,1.2-5.01,5.01,0,.12-.11.21-.23.2-.11,0-.19-.09-.2-.2-1.56-3.81-1.2-3.45-5.01-5.01-.26-.11-.26-.32,0-.43,3.81-1.56,3.45-1.2,5.01-5.01,0-.12.11-.21.23-.2.11,0,.19.09.2.2,1.56,3.81,1.2,3.45,5.01,5.01.02.01.04.02.06.03.02-.01.04-.02.07-.03,4.34-1.79,4.24-1.51,5.75-5.21-1.7-4.15-1.6-4.01-5.93-5.78-3.58,1.46-3.3,1.3-4.96,5.35-.01.12-.12.21-.24.2-.1-.01-.19-.09-.2-.2-1.76-4.28-1.34-3.86-5.62-5.62-.27-.12-.27-.32,0-.43,4.18-1.72,3.88-1.36,5.5-5.32-1.82-4.44-1.45-4.02-6.11-5.93-.07-.03-.13-.08-.18-.14-.04.06-.1.11-.17.14-3.56,1.45-3.23,1.12-4.68,4.68-.01.12-.12.21-.24.2-.1-.01-.19-.09-.2-.2-1.45-3.56-1.12-3.23-4.68-4.68-.12-.01-.21-.12-.2-.24,0-.1.09-.19.2-.2,3.56-1.45,3.23-1.12,4.68-4.68.01-.12.12-.21.24-.2.1.01.19.09.2.2,1.45,3.56,1.12,3.23,4.68,4.68.07.03.13.08.17.14.04-.06.1-.11.18-.14,4.43-1.83,4.31-1.53,5.86-5.32-1.7-4.17-1.57-3.92-6.15-5.8-3.51,1.43-3.21,1.19-4.74,4.93,0,.12-.11.21-.23.2-.11,0-.19-.09-.2-.2-1.58-3.86-1.21-3.49-5.07-5.07-.12,0-.21-.11-.2-.23,0-.11.09-.19.2-.2,3.86-1.58,3.49-1.21,5.07-5.07,0-.12.11-.21.23-.2.11,0,.19.09.2.2,1.53,3.74,1.23,3.5,4.74,4.93,4.57-1.88,4.44-1.63,6.15-5.8-1.55-3.79-1.43-3.5-5.86-5.32-.07-.03-.13-.08-.18-.14-.04.06-.1.11-.17.14-3.56,1.45-3.23,1.12-4.68,4.68-.01.12-.12.21-.24.2-.1,0-.19-.09-.2-.2-1.45-3.56-1.12-3.23-4.68-4.68-.12,0-.21-.11-.2-.23,0-.11.09-.19.2-.2,3.56-1.45,3.23-1.12,4.68-4.68.01-.12.12-.21.24-.2.1,0,.19.09.2.2,1.45,3.56,1.12,3.23,4.68,4.68.07.03.13.08.17.14.04-.06.1-.11.18-.14,4.65-1.92,4.29-1.5,6.11-5.93-1.62-3.97-1.32-3.6-5.5-5.32-.27-.11-.27-.32,0-.43,4.28-1.76,3.86-1.34,5.62-5.62.01-.12.12-.21.24-.2.1.01.19.09.2.2,1.66,4.05,1.38,3.89,4.96,5.35,4.32-1.77,4.23-1.63,5.93-5.78-1.51-3.71-1.4-3.42-5.75-5.21-.02-.01-.04-.02-.07-.04-.02.01-.04.02-.06.03-3.81,1.56-3.45,1.2-5.01,5.01,0,.12-.11.21-.23.2-.11,0-.19-.09-.2-.2-1.56-3.81-1.2-3.45-5.01-5.01-.26-.11-.26-.32,0-.43,3.81-1.56,3.45-1.2,5.01-5.01,0-.12.11-.21.23-.2.11,0,.19.09.2.2,1.56,3.82,1.2,3.45,5.01,5.01.02,0,.04.02.06.03.02-.01.04-.02.07-.04,4.64-1.91,4.2-1.45,6.09-6.05-1.62-3.95-1.26-3.57-5.26-5.21-.27-.11-.27-.32,0-.43,4.03-1.65,3.64-1.26,5.29-5.29.01-.12.12-.21.24-.2.1,0,.19.09.2.2,1.64,3.99,1.27,3.64,5.19,5.25,4.6-1.89,4.15-1.46,6.07-6.11-1.59-3.88-1.22-3.51-5.12-5.1-.26-.11-.26-.32,0-.43,3.9-1.6,3.52-1.22,5.12-5.12,0-.12.11-.21.23-.2.11,0,.19.09.2.2,1.6,3.9,1.22,3.52,5.12,5.12.07.03.13.08.17.14.02-.02.04-.04.07-.05,0-.11.08-.21.19-.23,4.18-1.72,3.88-1.36,5.5-5.33-1.82-4.44-1.45-4.02-6.11-5.93-.07-.03-.13-.08-.17-.14-.04.06-.1.11-.17.14-3.56,1.45-3.23,1.12-4.68,4.68,0,.12-.12.21-.24.2-.1,0-.19-.09-.2-.2-1.45-3.56-1.12-3.23-4.68-4.68-.12-.01-.21-.12-.2-.24,0-.1.09-.19.2-.2,3.56-1.45,3.23-1.12,4.68-4.68,0-.12.12-.21.24-.2.1,0,.19.09.2.2,1.45,3.56,1.12,3.23,4.68,4.68.07.03.13.08.17.14.04-.06.1-.11.17-.14,4.43-1.83,4.31-1.53,5.86-5.32-1.7-4.17-1.57-3.92-6.15-5.8-3.51,1.43-3.21,1.19-4.74,4.93,0,.12-.11.21-.23.2-.11,0-.19-.09-.2-.2-1.58-3.86-1.21-3.49-5.07-5.07-.12,0-.21-.11-.2-.23,0-.11.09-.19.2-.2,3.86-1.58,3.49-1.21,5.07-5.07,0-.12.11-.21.23-.2.11,0,.19.09.2.2,1.53,3.74,1.23,3.5,4.74,4.93,4.57-1.88,4.44-1.63,6.15-5.8-1.55-3.79-1.43-3.5-5.86-5.32-.07-.03-.13-.08-.18-.14-.04.06-.1.11-.17.14-3.56,1.45-3.23,1.12-4.68,4.68,0,.12-.12.21-.24.2-.1,0-.19-.09-.2-.2-1.45-3.56-1.12-3.23-4.68-4.68-.12-.01-.21-.12-.2-.24,0-.1.09-.19.2-.2,3.56-1.45,3.23-1.12,4.68-4.68,0-.12.12-.21.24-.2.1,0,.19.09.2.2,1.45,3.56,1.12,3.23,4.68,4.68.07.03.13.08.17.14.04-.06.1-.11.18-.14,4.65-1.92,4.29-1.5,6.11-5.93-1.62-3.97-1.32-3.6-5.5-5.32-.27-.11-.27-.32,0-.43,4.28-1.76,3.86-1.34,5.62-5.62.03-.1.11-.18.22-.2.11.02.19.1.22.2,1.66,4.05,1.38,3.89,4.96,5.35,4.32-1.77,4.23-1.63,5.93-5.78-1.51-3.71-1.4-3.42-5.75-5.21-.02,0-.04-.02-.07-.03-.02,0-.04.02-.06.03-3.81,1.56-3.45,1.2-5.01,5.01,0,.12-.11.21-.23.2-.11,0-.19-.09-.2-.2-1.56-3.81-1.2-3.45-5.01-5.01-.26-.11-.26-.32,0-.43,3.81-1.56,3.45-1.2,5.01-5.01,0-.12.11-.21.23-.2.11,0,.19.09.2.2,1.56,3.81,1.2,3.45,5.01,5.01.02,0,.04.02.06.03.02,0,.04-.02.07-.03,4.65-1.91,4.2-1.46,6.09-6.05-1.62-3.95-1.26-3.57-5.26-5.21-.27-.11-.27-.32,0-.43,4.03-1.65,3.64-1.26,5.29-5.29,0-.12.12-.21.24-.2.1,0,.19.09.2.2,1.64,3.99,1.27,3.64,5.19,5.25,4.6-1.89,4.15-1.46,6.07-6.12-1.59-3.88-1.22-3.51-5.11-5.1-.26-.11-.27-.32,0-.43,3.9-1.6,3.52-1.22,5.12-5.12,0-.12.11-.21.23-.2.11,0,.19.09.2.2,1.6,3.9,1.22,3.52,5.12,5.12.07.03.13.08.17.14.04-.06.1-.11.17-.14,4.41-1.82,3.97-1.37,5.79-5.79.03-.1.11-.18.22-.2.1.02.19.1.22.2,1.74,4.24,1.41,4,5.3,5.59,4.38-1.79,4-1.5,5.93-6.18-1.51-3.69-1.18-3.35-4.93-4.88-.26-.11-.26-.32,0-.43,3.77-1.54,3.41-1.19,4.96-4.96,0-.12.11-.21.23-.2.11,0,.19.09.2.2,1.54,3.77,1.19,3.41,4.96,4.96.26.11.26.32,0,.43-3.74,1.53-3.42,1.19-4.93,4.88,1.82,4.43,1.59,4.4,5.27,5.91,4.03-1.65,3.91-1.63,5.71-6.02-1.4-3.44-1.25-3.17-5.14-4.77-.1-.03-.18-.11-.2-.22.02-.11.1-.19.2-.22,4.11-1.69,3.71-1.29,5.4-5.4.01-.12.12-.21.24-.2.1,0,.19.09.2.2,1.69,4.11,1.29,3.71,5.4,5.4h.01c4.46-1.84,4.01-1.39,5.84-5.85.01-.12.12-.21.24-.2.1,0,.19.09.2.2,1.83,4.46,1.39,4.01,5.84,5.84h0c4.11-1.69,3.71-1.29,5.4-5.4,0-.12.12-.21.24-.2.1,0,.19.09.2.2,1.69,4.11,1.29,3.71,5.4,5.4,0,0,.02,0,.03.02,4.48-1.84,4.08-1.45,5.94-5.98-1.62-3.95-1.26-3.57-5.26-5.21-.27-.11-.27-.32,0-.43,4.03-1.65,3.64-1.26,5.29-5.29,0-.12.12-.21.24-.2.1,0,.19.09.2.2,1.64,3.99,1.27,3.64,5.19,5.25.89-.36,1.58-.64,2.15-.89,1.13-1.35,2.28-2.69,3.43-4.03.15-.36.31-.75.49-1.2-1.59-3.88-1.22-3.51-5.11-5.1-.26-.11-.27-.32,0-.43,3.9-1.6,3.52-1.22,5.12-5.12,0-.12.11-.21.23-.2.11,0,.19.09.2.2,1.58,3.85,1.24,3.54,4.99,5.07,2.05-2.3,4.13-4.59,6.22-6.86-1.32-3.25-1.08-2.98-4.45-4.35-.26-.11-.26-.32,0-.43,3.43-1.4,3.11-1.09,4.52-4.51.03-.1.11-.18.22-.2.11.02.19.1.22.2,1.34,3.29,1.12,3.14,4.12,4.35,2.38-2.52,4.78-5.02,7.22-7.5-.04-.04-.07-.08-.07-.14-1.06-2.62-.85-2.41-3.46-3.46-.26-.11-.26-.32,0-.43,2.62-1.06,2.41-.85,3.46-3.46.03-.1.11-.18.22-.2.1.02.19.1.21.2,1.06,2.62.85,2.41,3.47,3.46.05.02.08.05.11.07,48.01-47.89,103.89-85.52,166.08-111.82C415.44,13.85,484.06,0,554.8,0s139.36,13.85,203.97,41.18c62.4,26.39,118.44,64.17,166.56,112.3,7.34,7.34,14.43,14.86,21.29,22.57.22.09.46.19.72.29.07.03.13.08.17.14.04-.06.1-.11.17-.14,3.9-1.6,3.52-1.22,5.12-5.12,0-.12.11-.21.23-.2.11,0,.19.09.2.2,1.6,3.9,1.22,3.52,5.12,5.12.27.11.27.32,0,.43-3.89,1.6-3.52,1.22-5.11,5.1,1.92,4.66,1.47,4.22,6.06,6.12,3.92-1.6,3.55-1.25,5.19-5.25.03-.1.11-.18.22-.2.1.02.19.1.21.2,1.66,4.03,1.27,3.64,5.29,5.29.27.11.27.32,0,.43-4,1.64-3.64,1.27-5.25,5.21,1.86,4.54,1.46,4.15,5.94,5.99,0,0,.02-.02.03-.02,4.11-1.69,3.71-1.29,5.4-5.4.02-.1.11-.18.21-.2.11.02.19.1.22.2,1.69,4.11,1.29,3.71,5.4,5.4h.02c4.45-1.83,4.01-1.39,5.84-5.84.03-.1.11-.18.22-.2.1.02.19.1.21.2,1.84,4.46,1.39,4.01,5.85,5.84h.01c4.12-1.68,3.72-1.28,5.4-5.4.01-.12.12-.21.24-.2.11,0,.19.09.2.2,1.69,4.11,1.28,3.71,5.4,5.4.12,0,.21.11.2.23,0,.11-.09.19-.2.2-3.89,1.6-3.74,1.33-5.14,4.77,1.79,4.39,1.67,4.37,5.7,6.02,3.68-1.5,3.44-1.48,5.27-5.91-1.51-3.69-1.18-3.35-4.93-4.88-.26-.11-.26-.32,0-.43,3.77-1.54,3.41-1.19,4.96-4.96.03-.1.11-.18.22-.2.1.02.19.1.21.2,1.55,3.77,1.19,3.41,4.96,4.96.26.11.26.32,0,.43-3.75,1.53-3.42,1.19-4.93,4.88,1.93,4.68,1.55,4.38,5.94,6.18,3.89-1.59,3.55-1.34,5.29-5.59.01-.12.12-.21.24-.2.11,0,.19.09.2.2,1.81,4.41,1.37,3.97,5.78,5.79.07.03.14.08.18.14.04-.06.1-.11.17-.14,3.9-1.6,3.53-1.22,5.13-5.12.02-.1.11-.18.21-.2.11,0,.19.09.22.2,1.6,3.9,1.22,3.52,5.12,5.12.27.11.27.32,0,.43-3.89,1.59-3.52,1.22-5.11,5.1,1.92,4.66,1.47,4.22,6.06,6.11,3.92-1.6,3.55-1.25,5.19-5.25.03-.1.11-.18.22-.2.1.02.19.1.21.2,1.66,4.03,1.27,3.64,5.29,5.29.27.11.27.32,0,.43-4,1.64-3.64,1.27-5.25,5.21,1.88,4.59,1.44,4.13,6.08,6.05.02,0,.05.02.07.04.02,0,.04-.02.06-.03,3.82-1.56,3.45-1.2,5.02-5.01.02-.1.11-.18.21-.2.11.02.19.1.22.2,1.56,3.82,1.2,3.45,5.01,5.01.27.11.27.32,0,.43-3.81,1.56-3.45,1.2-5.01,5.01-.03.1-.11.18-.22.2-.1-.02-.19-.1-.21-.2-1.57-3.81-1.2-3.45-5.02-5.01l-.06-.03s-.05.03-.07.03c-4.34,1.79-4.23,1.51-5.74,5.21,1.69,4.15,1.6,4.01,5.92,5.78,3.59-1.46,3.3-1.3,4.97-5.35.02-.1.11-.18.21-.2.11.02.19.1.22.2,1.76,4.29,1.33,3.86,5.62,5.62.26.11.26.32,0,.43-4.18,1.72-3.88,1.36-5.5,5.32,1.82,4.44,1.45,4.02,6.11,5.93.07.03.13.08.17.14.04-.07.11-.11.18-.14,3.56-1.45,3.23-1.12,4.68-4.68.03-.1.11-.18.22-.2.1.02.19.1.21.2,1.46,3.56,1.13,3.23,4.68,4.68.12.01.21.12.2.24,0,.1-.09.19-.2.2-3.55,1.45-3.22,1.12-4.68,4.68-.02.1-.11.18-.21.2-.11-.02-.19-.1-.22-.2-1.45-3.56-1.12-3.23-4.68-4.68-.07-.02-.14-.07-.18-.14-.04.07-.1.11-.17.14-4.43,1.83-4.31,1.53-5.86,5.32,1.7,4.17,1.57,3.92,6.15,5.8,3.51-1.43,3.21-1.19,4.74-4.93.01-.12.12-.21.24-.19.1,0,.18.09.19.19,1.58,3.86,1.21,3.49,5.07,5.07.12,0,.21.11.2.23,0,.11-.09.19-.2.2-3.86,1.58-3.49,1.21-5.07,5.07-.02.1-.11.18-.21.2-.11-.02-.19-.1-.22-.2-1.53-3.74-1.23-3.51-4.74-4.93-4.58,1.88-4.45,1.63-6.15,5.8,1.55,3.79,1.43,3.5,5.86,5.32.07.03.13.08.17.14.04-.07.11-.11.18-.14,3.56-1.45,3.23-1.12,4.68-4.68.01-.12.12-.21.24-.19.1,0,.18.09.19.19,1.46,3.56,1.13,3.23,4.68,4.68.12.01.21.12.2.24,0,.1-.09.19-.2.2-3.55,1.45-3.22,1.12-4.68,4.68-.02.1-.11.18-.21.2-.11-.02-.19-.1-.22-.2-1.45-3.56-1.12-3.23-4.68-4.68-.07-.02-.14-.07-.18-.14-.04.07-.1.12-.17.14-4.66,1.92-4.29,1.5-6.11,5.93,1.62,3.97,1.32,3.6,5.5,5.32.11.02.19.12.19.23.03.01.05.03.07.05.04-.06.1-.11.17-.14,3.9-1.6,3.53-1.22,5.13-5.12.02-.1.11-.18.21-.2.11.01.19.09.22.2,1.6,3.9,1.22,3.52,5.12,5.12.27.11.27.32,0,.43-3.89,1.6-3.52,1.23-5.11,5.1,1.92,4.66,1.47,4.22,6.06,6.11,3.92-1.6,3.55-1.25,5.19-5.25.03-.1.11-.18.22-.2.1.02.19.1.21.2,1.66,4.03,1.27,3.64,5.29,5.29.27.11.27.32,0,.43-4,1.64-3.64,1.27-5.25,5.21,1.88,4.59,1.44,4.13,6.08,6.05.02,0,.05.02.07.04.02-.01.04-.02.06-.03,3.82-1.56,3.45-1.2,5.02-5.01.02-.1.11-.18.21-.2.11.02.19.1.22.2,1.56,3.82,1.2,3.45,5.01,5.01.27.11.27.32,0,.43-3.81,1.56-3.45,1.2-5.01,5.01-.03.1-.11.18-.22.2-.1-.02-.19-.1-.21-.2-1.57-3.82-1.2-3.45-5.02-5.01l-.06-.03s-.05.03-.07.03c-4.34,1.79-4.23,1.5-5.74,5.21,1.69,4.15,1.6,4.01,5.92,5.78,3.59-1.46,3.3-1.3,4.97-5.35.02-.1.11-.18.21-.2.11.02.19.1.22.2,1.76,4.29,1.33,3.86,5.62,5.62.26.11.26.32,0,.43-4.18,1.72-3.88,1.36-5.5,5.32,1.82,4.44,1.45,4.02,6.11,5.93.07.03.13.08.17.14.04-.07.11-.11.18-.14,3.56-1.45,3.23-1.12,4.68-4.68.03-.1.11-.18.22-.2.1.02.19.1.21.2,1.46,3.56,1.13,3.23,4.68,4.68.12,0,.21.11.2.23,0,.11-.09.19-.2.2-3.55,1.45-3.22,1.12-4.68,4.68-.02.1-.11.18-.21.2-.11-.02-.19-.1-.22-.2-1.45-3.56-1.12-3.23-4.68-4.68-.07-.03-.14-.08-.18-.14-.04.07-.1.11-.17.14-4.43,1.83-4.31,1.53-5.86,5.32,1.7,4.17,1.57,3.92,6.15,5.8,3.51-1.43,3.21-1.19,4.74-4.93.01-.12.12-.21.24-.19.1,0,.18.09.19.19,1.58,3.86,1.21,3.49,5.07,5.07.12,0,.22.1.22.22s-.1.22-.22.22c-3.86,1.58-3.49,1.21-5.07,5.07-.02.1-.11.18-.21.2-.11-.02-.19-.1-.22-.2-1.53-3.74-1.23-3.5-4.74-4.93-4.58,1.88-4.45,1.63-6.15,5.8,1.55,3.79,1.43,3.5,5.86,5.32.07.03.13.08.17.14.04-.07.11-.11.18-.14,3.56-1.45,3.23-1.12,4.68-4.68.03-.11.11-.19.22-.2.1.02.19.1.21.2,1.46,3.56,1.13,3.23,4.68,4.68.12.01.21.12.2.24,0,.1-.09.19-.2.2-3.55,1.45-3.22,1.12-4.68,4.68-.02.1-.11.18-.21.2-.11-.02-.19-.1-.22-.2-1.45-3.56-1.12-3.23-4.68-4.68-.07-.02-.14-.07-.18-.14-.04.07-.1.12-.17.14-4.66,1.92-4.29,1.5-6.11,5.93,1.62,3.97,1.32,3.6,5.5,5.32.26.11.26.32,0,.43-4.29,1.76-3.86,1.34-5.62,5.62-.03.1-.11.18-.22.2-.1-.02-.19-.1-.21-.2-1.67-4.05-1.38-3.89-4.97-5.35-4.32,1.77-4.23,1.63-5.92,5.78,1.51,3.71,1.4,3.42,5.74,5.21.02,0,.05.02.07.03l.06-.03c3.82-1.56,3.45-1.2,5.02-5.01.02-.1.11-.18.21-.2.11.02.19.1.22.2,1.56,3.81,1.2,3.45,5.01,5.01.27.11.27.32,0,.43-3.81,1.56-3.45,1.2-5.01,5.01-.03.1-.11.18-.22.2-.1-.02-.19-.1-.21-.2-1.57-3.81-1.2-3.45-5.02-5.01l-.06-.03s-.05.03-.07.03c-4.64,1.92-4.2,1.46-6.08,6.05,1.61,3.95,1.25,3.57,5.25,5.21.27.11.27.32,0,.43-4.02,1.65-3.63,1.26-5.29,5.29-.02.1-.11.18-.21.2-.11-.02-.19-.1-.22-.2-1.64-3.99-1.27-3.64-5.19-5.25-4.59,1.89-4.14,1.46-6.06,6.11,1.59,3.88,1.22,3.51,5.11,5.1.27.11.27.32,0,.43-3.9,1.6-3.52,1.22-5.12,5.12-.01.12-.12.21-.24.19-.1,0-.18-.09-.19-.19-1.24-3.02-1.3-3.48-3.07-4.27.65,2.96,1.28,5.93,1.87,8.91.39-.47.65-1.18,1.21-2.56.02-.1.11-.18.21-.2.11.01.2.09.22.2,1.25,3.09.98,2.82,4.07,4.07.26.11.26.32,0,.43-3.09,1.26-2.82.99-4.07,4.07-.01.12-.12.21-.24.19-.1,0-.18-.09-.19-.19-.03-.06-.05-.12-.07-.18,6.03,31.98,9.06,64.62,9.06,97.73s-3.03,65.72-9.06,97.69c.02-.05.04-.09.06-.14,0-.1.09-.18.19-.19.12-.01.22.08.24.19,1.25,3.09.98,2.82,4.07,4.07.26.11.26.32,0,.43-3.09,1.26-2.82.99-4.07,4.07,0,.1-.09.18-.19.19-.12.01-.22-.08-.24-.19-.56-1.37-.82-2.08-1.2-2.56-.6,2.97-1.22,5.94-1.87,8.9,1.77-.79,1.84-1.25,3.07-4.27,0-.1.09-.18.19-.19.12-.01.22.08.24.19,1.6,3.9,1.22,3.52,5.12,5.12.27.11.27.32,0,.43-3.89,1.59-3.52,1.22-5.11,5.1,1.92,4.66,1.47,4.22,6.06,6.11,3.92-1.6,3.55-1.26,5.19-5.25.03-.1.11-.18.22-.2.1.02.19.1.21.2,1.66,4.03,1.27,3.64,5.29,5.29.27.11.27.32,0,.43-4,1.64-3.64,1.27-5.25,5.21,1.88,4.59,1.44,4.13,6.08,6.05.02,0,.05.02.07.03l.06-.03c3.82-1.56,3.45-1.2,5.02-5.01.02-.1.11-.18.21-.2.11.02.19.1.22.2,1.56,3.81,1.2,3.45,5.01,5.01.27.11.27.32,0,.43-3.81,1.56-3.45,1.2-5.01,5.01-.03.1-.11.18-.22.2-.1-.02-.19-.1-.21-.2-1.57-3.81-1.2-3.45-5.02-5.01l-.06-.03s-.05.03-.07.03c-4.34,1.79-4.23,1.51-5.74,5.21,1.69,4.15,1.6,4.01,5.92,5.78,3.59-1.46,3.3-1.3,4.97-5.35.02-.1.11-.18.21-.2.11.02.19.1.22.2,1.76,4.28,1.33,3.86,5.62,5.62.26.12.26.32,0,.43-4.18,1.72-3.88,1.36-5.5,5.32,1.82,4.43,1.45,4.02,6.11,5.93.07.03.13.08.17.14.04-.07.11-.12.18-.14,3.56-1.45,3.23-1.12,4.68-4.68.03-.1.11-.18.22-.2.1.02.19.1.21.2,1.46,3.56,1.13,3.23,4.68,4.68.1,0,.19.09.2.2.01.12-.08.23-.2.24-3.55,1.45-3.22,1.12-4.68,4.68-.02.1-.11.18-.21.2-.11-.01-.19-.09-.22-.2-1.45-3.56-1.12-3.23-4.68-4.68-.07-.03-.14-.07-.18-.14-.04.07-.1.12-.17.14-4.43,1.82-4.31,1.53-5.86,5.32,1.7,4.17,1.57,3.92,6.15,5.8,3.51-1.43,3.21-1.19,4.74-4.93.03-.1.11-.18.22-.2.1.02.19.1.21.2,1.58,3.86,1.21,3.49,5.07,5.07.1.02.18.11.2.22v.09ZM1082.64,334.04c1.53,3.72,1.74,3.86,5.69,5.48,3.22-1.32,3.12-1.43,4.73-5.37-1.53-3.74-1.34-3.63-4.84-5.05h0c-4.01,1.64-4.22,1.63-5.58,4.94h0ZM1092.81,345.85c-1.36-3.35-1.43-3.51-4.48-4.76-3.63,1.49-4.1,1.73-5.34,4.65,1.39,3.33,1.84,3.69,5.45,5.18h0c2.8-1.18,2.93-1.53,4.37-5.07h0ZM1088.44,353.08c-3.61,1.49-4.06,1.85-5.45,5.18h0c1.24,2.92,1.71,3.16,5.34,4.65,3.05-1.25,3.12-1.41,4.48-4.76-1.44-3.54-1.57-3.9-4.37-5.07h0ZM1082.64,369.96c1.36,3.31,1.57,3.3,5.58,4.94,3.5-1.42,3.31-1.31,4.84-5.05-1.61-3.95-1.51-4.05-4.73-5.37h0c-3.95,1.62-4.16,1.76-5.69,5.48h0ZM1081.46,393.34c-1.73-4.21-1.5-4.17-5.04-5.62h0c-2.73,1.11-4.64,3.02-5.75,5.73,1.45,3.54,1.42,3.33,5.63,5.06,3.9-1.59,3.56-1.26,5.16-5.17ZM1072.01,358.35h0c1.03,2.16,1.84,2.73,4.62,3.9,2.26-.99,2.76-1.56,3.8-4-1.13-2.7-1.64-3.44-3.71-4.42-2.75,1.21-3.54,1.93-4.71,4.52h0ZM1076.72,350.16h0c2.07-.98,2.58-1.73,3.71-4.43-1.04-2.44-1.54-3.01-3.8-4-2.78,1.17-3.59,1.75-4.62,3.91,1.17,2.59,1.96,3.31,4.71,4.52h0ZM1071.55,370.06c1.13,2.57,1.76,2.96,4.98,4.29,2.74-1.14,3.05-1.5,4.25-4.4-1.3-3.15-1.65-3.74-4.15-4.83h0c-3.18,1.34-3.78,1.89-5.08,4.93h0ZM1080.78,334.04c-1.2-2.9-1.51-3.25-4.25-4.4-3.22,1.33-3.85,1.73-4.98,4.29,1.3,3.05,1.9,3.6,5.08,4.95h0c2.5-1.1,2.85-1.68,4.15-4.84h0ZM1081.12,322.35c-1.38-3.38-1.41-3.44-4.7-4.78-3.7,1.51-4.05,1.65-5.31,4.68,1.46,3.53,1.8,3.85,5.42,5.34h0c2.99-1.25,3.09-1.56,4.59-5.23h0ZM1071.11,381.76c1.26,3.03,1.61,3.16,5.31,4.67,3.29-1.34,3.32-1.4,4.7-4.78-1.5-3.67-1.6-3.98-4.59-5.23h0c-3.62,1.49-3.96,1.81-5.42,5.34ZM1070.67,310.54c1.11,2.71,3.02,4.62,5.75,5.73,3.54-1.44,3.31-1.41,5.04-5.62-1.6-3.91-1.26-3.58-5.16-5.17h0c-4.21,1.73-4.18,1.51-5.63,5.05h0ZM27.96,369.96c-1.53-3.72-1.74-3.86-5.7-5.48-3.22,1.32-3.11,1.43-4.73,5.37,1.53,3.74,1.35,3.63,4.84,5.05,4.01-1.64,4.22-1.64,5.58-4.94h.01ZM17.79,358.15h0c1.36,3.35,1.44,3.51,4.48,4.76,3.64-1.49,4.11-1.73,5.35-4.65-1.4-3.33-1.85-3.69-5.46-5.18-2.8,1.18-2.92,1.53-4.37,5.07h0ZM22.16,350.92c3.61-1.49,4.06-1.85,5.46-5.18-1.24-2.92-1.71-3.16-5.35-4.65-3.04,1.25-3.11,1.41-4.48,4.76,1.45,3.54,1.57,3.9,4.37,5.07h0ZM27.97,334.04c-1.37-3.31-1.58-3.3-5.59-4.94-3.49,1.42-3.31,1.31-4.84,5.05,1.62,3.94,1.51,4.05,4.73,5.37,3.96-1.62,4.16-1.76,5.7-5.48h0ZM39.93,393.46c-1.11-2.71-3.02-4.62-5.74-5.73h0c-3.54,1.45-3.31,1.41-5.04,5.62,1.6,3.91,1.27,3.58,5.16,5.17,4.22-1.73,4.19-1.52,5.63-5.06h-.01ZM38.59,345.65c-1.03-2.16-1.84-2.73-4.62-3.91-2.26.99-2.76,1.56-3.8,4,1.13,2.7,1.64,3.45,3.71,4.42,2.76-1.21,3.54-1.93,4.71-4.51ZM33.88,353.84c-2.06.98-2.58,1.73-3.71,4.42h0c1.04,2.44,1.54,3.01,3.8,4,2.78-1.17,3.59-1.75,4.62-3.91-1.17-2.59-1.96-3.3-4.71-4.51ZM39.05,333.94c-1.13-2.57-1.76-2.96-4.98-4.29-2.75,1.14-3.06,1.5-4.25,4.4,1.3,3.16,1.65,3.74,4.15,4.83h0c3.18-1.34,3.78-1.9,5.08-4.94h0ZM29.83,369.96c1.2,2.89,1.5,3.25,4.25,4.4,3.22-1.33,3.84-1.73,4.98-4.29-1.3-3.04-1.9-3.59-5.08-4.93h0c-2.5,1.09-2.85,1.67-4.15,4.83h0ZM39.49,322.24c-1.27-3.03-1.61-3.16-5.31-4.68-3.29,1.34-3.32,1.41-4.7,4.78,1.5,3.67,1.6,3.98,4.59,5.23h0c3.62-1.49,3.96-1.8,5.42-5.34h0ZM29.48,381.65c1.38,3.38,1.41,3.44,4.7,4.78,3.7-1.51,4.05-1.65,5.31-4.67-1.46-3.54-1.8-3.85-5.42-5.34h0c-2.99,1.25-3.09,1.56-4.59,5.23ZM39.94,310.54c-1.45-3.54-1.42-3.32-5.63-5.06-3.89,1.59-3.55,1.26-5.16,5.17,1.73,4.21,1.5,4.17,5.04,5.62,2.73-1.11,4.64-3.02,5.75-5.73ZM17.54,678.15c1.62,3.94,1.51,4.05,4.73,5.37h0c3.95-1.62,4.16-1.76,5.7-5.48-1.36-3.31-1.57-3.3-5.58-4.94-3.49,1.42-3.31,1.31-4.84,5.05h-.01ZM27.62,689.74c-1.24-2.92-1.71-3.16-5.35-4.65-3.04,1.25-3.11,1.41-4.48,4.76h0c1.45,3.54,1.57,3.9,4.37,5.07,3.61-1.49,4.06-1.85,5.46-5.18ZM22.16,697.08c-2.8,1.18-2.92,1.53-4.37,5.07,1.36,3.35,1.44,3.51,4.48,4.76,3.64-1.49,4.11-1.73,5.35-4.65-1.4-3.33-1.85-3.69-5.46-5.18ZM27.97,713.96c-1.54-3.72-1.74-3.86-5.7-5.48-3.22,1.32-3.11,1.43-4.73,5.37,1.53,3.75,1.35,3.63,4.84,5.06,4.01-1.64,4.22-1.64,5.59-4.94h0ZM29.14,654.65c1.73,4.21,1.5,4.17,5.04,5.62h0c2.73-1.11,4.64-3.02,5.74-5.73-1.45-3.54-1.42-3.33-5.63-5.06-3.89,1.59-3.56,1.26-5.16,5.17h.01ZM30.17,702.26c1.04,2.44,1.54,3.01,3.8,4,2.78-1.17,3.59-1.75,4.62-3.91-1.17-2.59-1.96-3.31-4.71-4.51-2.06.98-2.58,1.73-3.71,4.42ZM30.17,689.74c1.13,2.69,1.64,3.44,3.71,4.42,2.76-1.21,3.54-1.93,4.71-4.52-1.03-2.16-1.84-2.73-4.62-3.91-2.26.99-2.76,1.55-3.8,4h0ZM29.82,713.96c1.19,2.9,1.5,3.25,4.25,4.4,3.22-1.33,3.85-1.72,4.98-4.29-1.3-3.04-1.9-3.59-5.08-4.94h0c-2.5,1.09-2.85,1.67-4.15,4.83h0ZM39.05,677.94c-1.13-2.57-1.75-2.96-4.98-4.29-2.75,1.14-3.05,1.5-4.25,4.4,1.3,3.16,1.65,3.74,4.15,4.83h0c3.18-1.34,3.78-1.9,5.08-4.94h0ZM39.49,666.24c-1.26-3.03-1.61-3.16-5.31-4.67-3.29,1.34-3.32,1.4-4.7,4.78,1.5,3.67,1.6,3.98,4.59,5.23h0c3.62-1.49,3.96-1.81,5.42-5.34ZM29.48,725.65c1.38,3.38,1.41,3.44,4.7,4.78,3.7-1.51,4.05-1.65,5.31-4.67-1.46-3.53-1.8-3.85-5.42-5.34h0c-2.99,1.25-3.09,1.56-4.59,5.23ZM39.94,737.46c-1.11-2.71-3.02-4.62-5.75-5.73-3.54,1.44-3.31,1.41-5.04,5.62,1.6,3.91,1.27,3.58,5.16,5.17,4.21-1.73,4.18-1.52,5.63-5.06ZM1002.65,808.03c.82,1.41,2.12,2.47,3.66,3,1.42-.57,2.56-1.67,3.17-3.07-.55-1.58-1.65-2.91-3.1-3.75h0c-1.68.75-3.02,2.12-3.73,3.82ZM1006.38,798.59c1.01-.54,1.83-1.36,2.39-2.36-.52-1.15-1.33-2.14-2.35-2.88h0c-1.22.68-2.22,1.7-2.9,2.93.74,1.01,1.72,1.81,2.86,2.32h0ZM1001.86,819.77c.96,2.01,1.74,2.55,4.36,3.66,2.36-1.01,2.94-1.55,3.92-3.75-1.15-2.69-1.74-3.52-3.83-4.53h0c-2.53,1.14-3.27,1.94-4.45,4.62h0ZM982.56,826.8c-1.4,1.98-2.83,3.95-4.26,5.91.76,1.44,1.48,1.87,3.76,2.81,3.01-1.24,3.63-1.62,4.66-3.92-1.22-2.89-1.83-3.7-4.16-4.79h0ZM1039.51,723.43c-.45,1.1-.91,2.19-1.37,3.29.81,1.06,1.9,1.88,3.17,2.31,1.42-.57,2.56-1.67,3.17-3.07-.55-1.58-1.65-2.91-3.1-3.75h0c-.69.3-1.32.72-1.87,1.22h0ZM1045.43,771.75c-1.04-2.44-1.54-3.01-3.8-4-2.78,1.17-3.59,1.75-4.62,3.91h0c1.17,2.58,1.96,3.3,4.71,4.51,2.07-.98,2.58-1.73,3.71-4.42h0ZM1041.72,779.85h0c-2.75,1.2-3.54,1.92-4.71,4.51,1.03,2.16,1.84,2.73,4.62,3.91,2.26-.99,2.76-1.55,3.8-4-1.13-2.7-1.64-3.44-3.71-4.42h0ZM1036.55,796.07c1.13,2.57,1.76,2.96,4.98,4.29,2.74-1.14,3.05-1.5,4.25-4.4-1.3-3.16-1.65-3.74-4.15-4.83h0c-3.18,1.33-3.78,1.88-5.08,4.94h0ZM1045.78,760.05c-1.2-2.9-1.51-3.25-4.25-4.4-3.22,1.33-3.85,1.72-4.98,4.29,1.3,3.04,1.9,3.59,5.08,4.94h0c2.5-1.11,2.85-1.68,4.15-4.83h0ZM1045.73,749.3c-1.41-3.44-1.72-3.96-4.51-5.16h0c-3.04,1.27-3.6,1.79-4.85,4.74,1.26,2.94,1.77,3.31,5.16,4.71,2.7-1.13,3.05-1.5,4.2-4.29h0ZM1045.14,737.68c-1.15-2.69-1.74-3.52-3.83-4.53h0c-2.53,1.14-3.27,1.94-4.45,4.62.96,2.01,1.74,2.55,4.36,3.66,2.36-1.01,2.94-1.55,3.92-3.75h0ZM990.62,819.85c.87,1.62,1.73,2.25,3.9,3.2,1.58-.53,2.85-1.73,3.48-3.27-1-2.26-1.68-3.18-3.41-4.11h0c-1.85.77-3.28,2.29-3.97,4.18h0ZM989.75,831.6c1.03,2.31,1.66,2.68,4.67,3.92,2.81-1.16,3.26-1.51,4.33-4.02-1.31-3.13-1.78-3.85-4.23-4.97h0c-2.85,1.23-3.45,1.93-4.77,5.07ZM996.28,806.46c-.79,1.24-1.6,2.47-2.4,3.7.23.13.46.26.71.36,1.11-.54,2.03-1.41,2.62-2.49-.24-.56-.56-1.09-.93-1.57ZM1021.15,796.16c-.54-1.51-1.6-2.79-2.98-3.61h0c-1.64.73-2.95,2.04-3.69,3.68.82,1.39,2.11,2.45,3.63,2.99,1.37-.59,2.45-1.68,3.04-3.05h0ZM1018.11,803.58h0c-2.03.72-3.62,2.33-4.33,4.37.94,1.9,1.78,2.5,4.24,3.56,1.74-.56,3.11-1.91,3.69-3.65-1.07-2.49-1.69-3.33-3.6-4.29h0ZM1020.55,784.44c-.51-1.15-1.32-2.14-2.34-2.88h0c-1.24.67-2.27,1.68-2.97,2.92.75,1.04,1.76,1.86,2.93,2.38,1.01-.56,1.84-1.41,2.38-2.43h0ZM1013.12,819.68c1.08,2.46,1.69,2.83,4.8,4.12,2.82-1.17,3.2-1.51,4.33-4.22-1.31-3.16-1.72-3.8-4.23-4.91h0c-3,1.28-3.59,1.9-4.9,5.02h0ZM1018,769.26c-.62,1.17-1.24,2.34-1.87,3.5.59.68,1.29,1.27,2.08,1.71,1.02-.74,1.83-1.73,2.34-2.88-.54-1.02-1.37-1.86-2.38-2.43-.06.03-.11.06-.17.09h0ZM1033.02,771.66c-.56-1.45-1.68-2.61-3.11-3.23-1.61.55-2.97,1.67-3.82,3.15h0s0,.01,0,0c.76,1.71,2.16,3.06,3.89,3.77,1.43-.82,2.52-2.14,3.04-3.7h0ZM1029.98,780.67h0c-1.73.7-3.13,2.06-3.89,3.77.85,1.48,2.2,2.61,3.82,3.16,1.43-.61,2.55-1.78,3.11-3.23-.52-1.57-1.61-2.88-3.04-3.7h0ZM1025.49,796.16c.97,1.94,1.82,2.56,4.33,3.64,1.75-.58,3.11-1.97,3.66-3.73-1.07-2.48-1.66-3.31-3.57-4.26h0c-2.06.69-3.68,2.3-4.42,4.34h0ZM1024.93,807.87c1.08,2.42,1.74,2.85,4.79,4.12,2.68-1.12,3.08-1.53,4.2-4.22-1.26-3.05-1.69-3.7-4.1-4.78h0c-2.98,1.27-3.61,1.9-4.89,4.88ZM1033.48,759.95c-.55-1.76-1.91-3.15-3.66-3.73-2.51,1.08-3.36,1.7-4.33,3.64.74,2.04,2.37,3.64,4.42,4.34h0c1.91-.96,2.5-1.79,3.57-4.26h0ZM1024.39,819.58c1.24,2.97,1.58,3.09,5.22,4.59,3.33-1.36,3.41-1.42,4.75-4.7-1.5-3.66-1.65-4.02-4.64-5.27h0c-3.52,1.45-3.85,1.8-5.33,5.39h0ZM1030.14,744.83c-1.03,2.22-2.08,4.43-3.14,6.63.66.57,1.51,1.01,2.82,1.57,2.18-.97,2.74-1.6,3.75-3.95-1.06-2.51-1.61-3.34-3.44-4.25h.01ZM1036.11,807.77c1.26,3.03,1.61,3.16,5.31,4.67,3.29-1.34,3.32-1.4,4.7-4.78-1.5-3.67-1.6-3.98-4.59-5.23h0c-3.62,1.48-3.96,1.79-5.42,5.34ZM1043.44,713.6c-.27.69-.53,1.38-.8,2.07.45-.42.83-.9,1.13-1.44-.1-.22-.22-.42-.33-.62h0ZM1051.56,691.24c.49.48,1.05.89,1.65,1.22,1.02-.74,1.83-1.73,2.34-2.88-.55-1.02-1.37-1.86-2.38-2.43-.11.05-.21.12-.32.17-.43,1.3-.85,2.61-1.29,3.91h0ZM1056.15,714.15c-.54-1.51-1.6-2.79-2.98-3.61h0c-1.64.73-2.95,2.04-3.69,3.68.82,1.39,2.11,2.45,3.63,2.99,1.37-.59,2.45-1.68,3.04-3.05h0ZM1053.11,721.58h0c-2.03.72-3.62,2.33-4.33,4.37.94,1.9,1.78,2.5,4.24,3.56,1.74-.56,3.11-1.91,3.69-3.65-1.07-2.49-1.69-3.33-3.6-4.29h0ZM1053.17,704.86c1.01-.56,1.84-1.41,2.38-2.43-.51-1.15-1.32-2.14-2.34-2.88h0c-1.24.67-2.27,1.69-2.97,2.92.75,1.04,1.76,1.86,2.93,2.38h0ZM1048.12,737.67c1.08,2.46,1.69,2.83,4.8,4.12,2.82-1.17,3.2-1.51,4.33-4.22-1.31-3.16-1.72-3.8-4.23-4.91h0c-3,1.28-3.59,1.9-4.9,5.02h0ZM1055.97,677.52c-.18.58-.35,1.16-.53,1.74.28-.44.54-.9.72-1.4-.05-.12-.13-.22-.19-.34h0ZM1061.09,702.43c.85,1.48,2.2,2.61,3.82,3.16,1.43-.61,2.55-1.78,3.11-3.23-.52-1.57-1.61-2.88-3.04-3.7h0c-1.73.71-3.12,2.06-3.89,3.77h0ZM1064.98,693.35c1.43-.82,2.52-2.13,3.04-3.7-.56-1.45-1.68-2.61-3.11-3.23-1.62.55-2.97,1.67-3.82,3.16h0c.77,1.71,2.16,3.06,3.89,3.77h0ZM1068.48,677.94c-.55-1.76-1.91-3.15-3.66-3.73-2.51,1.08-3.36,1.7-4.33,3.64.74,2.04,2.37,3.64,4.42,4.34h0c1.91-.95,2.5-1.77,3.57-4.26h0ZM1060.49,714.15c.97,1.94,1.82,2.56,4.33,3.64,1.75-.58,3.11-1.97,3.66-3.73-1.07-2.48-1.66-3.31-3.57-4.26h0c-2.06.7-3.68,2.3-4.42,4.34h0ZM1059.93,725.86c1.08,2.42,1.74,2.85,4.79,4.12,2.68-1.12,3.08-1.53,4.2-4.22-1.26-3.05-1.69-3.7-4.1-4.78h0c-2.98,1.28-3.61,1.91-4.89,4.88ZM1068.92,666.24c-1.12-2.69-1.52-3.1-4.2-4.22-3.05,1.27-3.71,1.7-4.79,4.12,1.28,2.97,1.91,3.6,4.89,4.88h0c2.41-1.08,2.84-1.73,4.1-4.78ZM1059.39,737.57c1.24,2.97,1.58,3.1,5.22,4.59,3.33-1.36,3.41-1.42,4.75-4.7-1.5-3.66-1.65-4.02-4.64-5.27h0c-3.52,1.46-3.85,1.81-5.33,5.39h0ZM1069.36,654.55c-1.34-3.28-1.42-3.34-4.75-4.7-.41.17-.78.32-1.11.46-.65,2.61-1.31,5.21-2,7.8.69.61,1.63,1.04,3.22,1.71h0c2.99-1.25,3.14-1.62,4.64-5.27ZM1009.48,240.04c-.61-1.4-1.75-2.51-3.17-3.07-1.54.53-2.84,1.59-3.66,3.01.71,1.7,2.05,3.07,3.73,3.83h0c1.45-.85,2.55-2.18,3.1-3.76h0ZM1006.38,249.42c-1.14.51-2.12,1.31-2.86,2.32.68,1.23,1.68,2.24,2.9,2.94h0c1.02-.75,1.83-1.75,2.35-2.89-.56-1-1.38-1.82-2.39-2.36h0ZM1010.14,228.32c-.98-2.2-1.56-2.73-3.92-3.75-2.62,1.11-3.4,1.65-4.36,3.66,1.18,2.68,1.92,3.48,4.45,4.63h0c2.09-1.02,2.68-1.85,3.83-4.54h0ZM1068.02,345.64c-.56-1.45-1.68-2.61-3.11-3.23-1.62.55-2.97,1.67-3.82,3.16.76,1.71,2.16,3.06,3.89,3.77h0c1.43-.82,2.52-2.14,3.04-3.7h0ZM1064.98,354.65c-1.73.71-3.13,2.06-3.89,3.77h0c.85,1.48,2.2,2.6,3.82,3.15,1.43-.61,2.55-1.78,3.11-3.23-.52-1.57-1.61-2.88-3.04-3.7h0ZM1068.48,333.94c-.55-1.76-1.91-3.15-3.66-3.73-2.51,1.08-3.36,1.7-4.33,3.64.74,2.04,2.36,3.65,4.42,4.35h0c1.91-.96,2.5-1.78,3.57-4.26ZM1060.49,370.14c.97,1.95,1.82,2.56,4.33,3.64,1.75-.58,3.11-1.97,3.66-3.73-1.07-2.48-1.66-3.3-3.57-4.25h0c-2.05.7-3.68,2.3-4.42,4.34ZM1059.93,381.86c1.08,2.42,1.74,2.85,4.79,4.12,2.68-1.12,3.08-1.53,4.2-4.22-1.26-3.04-1.69-3.69-4.1-4.77h0c-2.98,1.28-3.61,1.9-4.89,4.87ZM1068.92,322.23c-1.12-2.69-1.52-3.1-4.2-4.22-3.05,1.27-3.71,1.7-4.79,4.12,1.28,2.97,1.91,3.6,4.89,4.88h0c2.41-1.08,2.84-1.74,4.1-4.78ZM1069.36,310.54c-1.34-3.28-1.42-3.34-4.75-4.7-3.64,1.49-3.98,1.61-5.22,4.59,1.48,3.58,1.81,3.93,5.33,5.39h0c2.99-1.26,3.14-1.62,4.64-5.28ZM1061.5,389.89c.69,2.6,1.35,5.2,2,7.8.33.14.7.29,1.12.46,3.33-1.36,3.41-1.42,4.75-4.7-1.5-3.65-1.65-4.01-4.64-5.26h0c-1.6.66-2.53,1.09-3.22,1.7h-.01ZM1055.97,370.48c.06-.12.13-.22.19-.34-.18-.5-.43-.96-.72-1.4.18.58.36,1.16.53,1.74ZM1056.15,333.84c-.59-1.37-1.67-2.46-3.04-3.05-1.52.54-2.81,1.6-3.63,2.99.74,1.64,2.05,2.95,3.69,3.68h0c1.38-.83,2.44-2.11,2.98-3.62h0ZM1053.17,343.14c-1.17.52-2.18,1.35-2.93,2.38.7,1.24,1.72,2.25,2.97,2.93h0c1.02-.75,1.83-1.74,2.34-2.89-.54-1.02-1.37-1.86-2.38-2.43h0ZM1053.11,326.43h0c1.91-.97,2.53-1.81,3.6-4.3-.58-1.73-1.95-3.09-3.69-3.65-2.46,1.06-3.3,1.66-4.24,3.56.71,2.04,2.3,3.65,4.33,4.38h0ZM1057.25,310.43c-1.13-2.71-1.51-3.05-4.33-4.22-3.11,1.28-3.72,1.66-4.8,4.12,1.31,3.12,1.9,3.73,4.9,5.02h0c2.51-1.12,2.92-1.76,4.23-4.92h0ZM1051.56,356.76c.44,1.3.86,2.6,1.29,3.91.11.06.21.12.32.17,1.01-.57,1.83-1.41,2.38-2.43-.51-1.15-1.32-2.14-2.34-2.88-.61.33-1.16.75-1.65,1.23h0ZM1043.44,334.4c.12-.2.23-.41.33-.62-.3-.54-.69-1.02-1.13-1.44.27.69.53,1.38.8,2.06ZM1039.51,324.57c.55.5,1.18.92,1.87,1.23h0c1.45-.85,2.55-2.18,3.1-3.76-.61-1.4-1.75-2.51-3.17-3.07-1.27.43-2.36,1.25-3.17,2.31.46,1.09.91,2.19,1.37,3.29h0ZM1037.01,276.35h0c1.03,2.16,1.84,2.73,4.62,3.91,2.26-.99,2.76-1.56,3.8-4-1.13-2.69-1.64-3.44-3.71-4.42-2.75,1.21-3.54,1.93-4.71,4.51h0ZM1041.72,268.16h0c2.07-.99,2.58-1.74,3.71-4.43-1.04-2.44-1.54-3.01-3.8-4-2.78,1.17-3.59,1.75-4.62,3.91,1.17,2.6,1.96,3.32,4.71,4.52h0ZM1045.78,252.03c-1.2-2.89-1.51-3.25-4.25-4.4-3.22,1.33-3.85,1.73-4.98,4.29,1.3,3.06,1.9,3.61,5.08,4.95h0c2.5-1.1,2.85-1.68,4.15-4.84ZM1036.55,288.05c1.13,2.57,1.76,2.96,4.98,4.29,2.74-1.14,3.05-1.5,4.25-4.4-1.3-3.14-1.65-3.73-4.15-4.82h0c-3.18,1.33-3.78,1.89-5.08,4.93ZM1036.38,299.12c1.24,2.92,1.81,3.47,4.84,4.75h0c2.79-1.21,3.1-1.74,4.51-5.17-1.15-2.77-1.5-3.16-4.2-4.29-3.38,1.39-3.91,1.79-5.15,4.71h0ZM1036.86,310.23c1.18,2.68,1.92,3.48,4.45,4.63h0c2.09-1.02,2.68-1.85,3.83-4.54-.98-2.2-1.56-2.73-3.92-3.75-2.62,1.11-3.4,1.65-4.36,3.66h0ZM1046.12,240.34c-1.38-3.38-1.41-3.44-4.7-4.79-3.7,1.51-4.05,1.65-5.31,4.67,1.46,3.55,1.8,3.86,5.42,5.35h0c2.99-1.26,3.09-1.57,4.59-5.24h0ZM1026.09,276.41h0c.85,1.48,2.2,2.6,3.82,3.16,1.43-.61,2.55-1.78,3.11-3.23-.52-1.57-1.61-2.88-3.04-3.7-1.73.71-3.12,2.06-3.89,3.77h0ZM1029.98,267.34h0c1.43-.83,2.52-2.15,3.04-3.71-.56-1.45-1.68-2.61-3.11-3.23-1.62.55-2.97,1.67-3.82,3.16.76,1.71,2.15,3.07,3.89,3.78h0ZM1025.49,288.14c.97,1.95,1.82,2.56,4.33,3.64,1.75-.58,3.11-1.97,3.66-3.73-1.07-2.47-1.66-3.3-3.57-4.24h0c-2.05.69-3.68,2.29-4.42,4.33ZM1033.48,251.93c-.55-1.76-1.91-3.15-3.66-3.73-2.51,1.08-3.36,1.7-4.33,3.64.74,2.05,2.36,3.65,4.42,4.36v-.02c1.91-.95,2.5-1.77,3.57-4.26h0ZM1033.92,240.23c-1.12-2.69-1.52-3.1-4.2-4.22-3.05,1.26-3.71,1.7-4.79,4.12,1.28,2.98,1.91,3.61,4.89,4.89h0c2.41-1.09,2.84-1.74,4.1-4.79ZM1034.36,228.53c-1.34-3.28-1.42-3.34-4.75-4.7-3.64,1.49-3.98,1.62-5.22,4.59,1.48,3.59,1.81,3.94,5.33,5.4h0c2.99-1.26,3.14-1.62,4.64-5.28h0ZM1027.01,296.55c1.06,2.2,2.1,4.41,3.13,6.62,1.81-.92,2.38-1.75,3.44-4.25-1.01-2.34-1.58-2.98-3.75-3.95-1.31.56-2.16,1.01-2.82,1.58h0ZM1021.15,251.84c-.59-1.37-1.67-2.46-3.04-3.05-1.52.54-2.81,1.6-3.63,2.99.74,1.64,2.05,2.95,3.69,3.69h0c1.38-.83,2.44-2.11,2.98-3.62h0ZM1018.17,261.14c-1.17.52-2.18,1.35-2.93,2.38.7,1.24,1.72,2.25,2.97,2.93h0c1.02-.75,1.83-1.74,2.34-2.89-.54-1.02-1.37-1.86-2.38-2.43h0ZM1018.11,244.43h0c1.91-.97,2.53-1.81,3.6-4.3-.58-1.73-1.95-3.09-3.69-3.65-2.46,1.06-3.3,1.66-4.24,3.56.7,2.04,2.3,3.65,4.33,4.39ZM1022.25,228.42c-1.13-2.71-1.51-3.05-4.33-4.22-3.11,1.28-3.72,1.66-4.8,4.12,1.31,3.12,1.9,3.74,4.9,5.03h0c2.51-1.13,2.92-1.76,4.23-4.92h0ZM1016.13,275.24c.63,1.17,1.25,2.34,1.87,3.51.06.03.11.06.17.09,1.01-.57,1.84-1.41,2.38-2.43-.51-1.15-1.32-2.14-2.34-2.88-.8.44-1.49,1.02-2.08,1.7h0ZM998.75,216.51c-1.07-2.51-1.52-2.86-4.33-4.02-3.01,1.24-3.64,1.62-4.67,3.92,1.32,3.13,1.92,3.83,4.77,5.08h0c2.45-1.12,2.92-1.84,4.23-4.98ZM994.52,224.95c-2.17.95-3.03,1.58-3.9,3.2.69,1.89,2.12,3.4,3.97,4.19h0c1.73-.94,2.41-1.86,3.41-4.12-.63-1.55-1.9-2.74-3.48-3.27h0ZM993.89,237.84c.8,1.23,1.61,2.46,2.4,3.7.37-.48.69-1,.93-1.57-.59-1.08-1.51-1.96-2.62-2.49-.25.1-.48.23-.71.36h0ZM986.72,216.41c-1.03-2.31-1.65-2.68-4.66-3.92-2.27.94-3,1.36-3.76,2.8,1.43,1.96,2.85,3.93,4.26,5.91,2.33-1.09,2.94-1.91,4.16-4.79h0ZM1069.79,405.15c-1.79-4.33-1.52-4.26-5.18-5.75h0c-.23.09-.43.17-.63.25.8,3.3,1.57,6.61,2.31,9.93,2.2-.93,2.17-1.21,3.5-4.43ZM1058.86,298.73c1.74,4.24,1.64,4.18,5.75,5.86,3.66-1.49,3.39-1.42,5.18-5.75-1.59-3.87-1.22-3.5-5.12-5.09h0c-.07-.04-.13-.09-.17-.15-.04.07-.11.12-.18.14-4.12,1.7-4,1.42-5.46,4.99ZM1047.64,252.03c1.53,3.72,1.74,3.86,5.69,5.48,3.22-1.32,3.12-1.43,4.73-5.37-1.53-3.74-1.34-3.62-4.84-5.05h0c-4.01,1.63-4.22,1.63-5.58,4.93h0ZM1053.44,271.08h0c-3.61,1.48-4.06,1.84-5.45,5.17,1.24,2.92,1.71,3.16,5.34,4.65,3.05-1.25,3.12-1.41,4.48-4.76-1.44-3.53-1.57-3.88-4.37-5.06ZM1057.81,263.83c-1.36-3.35-1.43-3.51-4.48-4.76-3.63,1.49-4.1,1.73-5.34,4.65,1.39,3.33,1.84,3.69,5.45,5.18,2.8-1.16,2.93-1.52,4.37-5.06h0ZM1047.64,287.95c1.36,3.31,1.57,3.3,5.58,4.94.88-.32,1.74-.71,2.56-1.17.93-.67,1.24-1.55,2.24-4-1.57-3.81-1.5-3.94-4.69-5.25h0c-3.95,1.61-4.16,1.75-5.69,5.47h0ZM1047.6,298.9c1.48,3.58,1.76,3.87,5.32,5.34h0c3.21-1.34,3.26-1.6,4.86-5.51-1.38-3.38-1.35-3.31-4.86-4.74-3.74,1.53-3.96,1.6-5.32,4.91ZM1035.67,228.53c1.11,2.71,3.02,4.62,5.75,5.73,3.54-1.44,3.31-1.41,5.04-5.62-1.6-3.9-1.26-3.56-5.16-5.16v-.02c-4.21,1.73-4.18,1.52-5.63,5.06h0ZM1023.86,216.73c1.74,4.24,1.64,4.18,5.75,5.86,3.66-1.49,3.39-1.42,5.18-5.75-1.59-3.87-1.22-3.5-5.12-5.09h0c-.07-.04-.13-.09-.17-.15-.04.07-.11.12-.18.14-4.12,1.7-4,1.42-5.46,4.99h0ZM1012.49,216.61c1.58,3.85,1.77,4.1,5.43,5.61,3.21-1.33,3.26-1.59,4.86-5.5-1.4-3.4-1.35-3.29-4.97-4.77v-.02c-3.85,1.58-4.03,1.54-5.32,4.68h0ZM1001.12,216.51c1.44,3.48,1.86,3.98,5.1,5.35,2.82-1.21,3.1-1.73,4.54-5.24-1.21-2.94-1.44-3.08-4.65-4.39h0c-3.41,1.39-3.85,1.59-4.99,4.29h0ZM988.94,204.71c1.68,4.11,1.78,4.33,5.48,5.86,3.35-1.39,3.34-1.61,5.04-5.74-1.4-3.44-1.26-3.17-5.15-4.77h0c-4.02,1.65-4.05,1.45-5.36,4.66h0ZM977.02,204.81c1.69,4.13,1.68,4.36,5.04,5.74,3.7-1.53,3.79-1.74,5.48-5.86-1.31-3.19-1.35-2.99-5.36-4.64h0s-.01,0-.01-.02-.01,0-.01,0c-3.89,1.6-3.74,1.33-5.14,4.77h0ZM967.88,201.5c1.98,2.53,3.93,5.08,5.86,7.64.9-.76,1.3-1.83,2.32-4.31-.37-.9-.63-1.56-.88-2.05h0c-.7-1.37-1.37-1.55-4.1-2.67-.01,0-.03.02-.04.02-1.51.62-2.48,1-3.17,1.38h0ZM959.3,188.48h0c-.57.23-1.04.42-1.47.6,1.9,2.29,3.8,4.58,5.66,6.9.26-.59.56-1.34.97-2.33-1.6-3.91-1.26-3.58-5.16-5.17ZM947.27,176.77c1.74,1.97,3.46,3.95,5.17,5.93.11-.27.22-.55.35-.86-1.59-3.88-1.22-3.51-5.12-5.1h0c-.02-.1-.12-.16-.21-.14-.07,0-.12.07-.14.14-.02,0-.04.02-.06.02h.01ZM181.34,156.45c.96-.97,1.92-1.95,2.89-2.92-2.05.82-2.05.84-2.89,2.92ZM170.01,168.31c.81-.88,1.63-1.75,2.44-2.62-1.49.64-1.76.97-2.44,2.62ZM157.84,181.91c1.39-1.61,2.79-3.21,4.2-4.8-2.95,1.2-2.77,1.19-4.23,4.74,0,.02.02.04.03.07h0ZM146.15,193.66c.24.58.44,1.08.62,1.51,1.73-2.14,3.49-4.27,5.25-6.39-.23-.09-.46-.19-.72-.29-3.89,1.59-3.55,1.26-5.16,5.17h.01ZM134.54,204.84c.78,1.91,1.21,2.98,1.77,3.72,1.88-2.48,3.77-4.96,5.69-7.41-.61-.28-1.4-.58-2.44-1.02h0s-.02,0-.04-.02c-2.73,1.12-3.4,1.31-4.1,2.66-.24.49-.51,1.15-.88,2.06h0ZM45.99,398.16c.73-2.96,1.49-5.92,2.27-8.87-.59-.35-1.35-.68-2.38-1.11h0c-2.99,1.26-3.14,1.62-4.63,5.28,1.34,3.28,1.42,3.34,4.74,4.7h0ZM57.16,268.92h0c3.61-1.49,4.06-1.85,5.46-5.18-1.24-2.92-1.71-3.16-5.35-4.65-3.04,1.25-3.11,1.41-4.48,4.76,1.45,3.54,1.57,3.89,4.38,5.07h-.01ZM52.78,276.16c1.36,3.35,1.44,3.51,4.48,4.76,3.64-1.49,4.11-1.73,5.35-4.65-1.4-3.33-1.85-3.69-5.46-5.18-2.8,1.17-2.92,1.53-4.37,5.07h0ZM52.58,287.74c1,2.45,1.3,3.33,2.24,4,.82.46,1.67.85,2.55,1.17,4.01-1.64,4.22-1.64,5.58-4.94-1.53-3.73-1.74-3.86-5.69-5.49h0c-3.18,1.31-3.12,1.44-4.68,5.26h0ZM127.3,220.84c1.5-2.11,3.02-4.2,4.55-6.29-.65-.88-1.48-1.3-3.3-2.06-3.01,1.24-3.63,1.62-4.67,3.92,1.08,2.55,1.68,3.49,3.42,4.42h0ZM116,232.34h0c1.84-.79,3.28-2.3,3.97-4.18-.87-1.62-1.73-2.25-3.9-3.2-1.58.53-2.86,1.73-3.49,3.27,1.01,2.26,1.69,3.18,3.41,4.11h0ZM120.85,216.41c-1.03-2.31-1.66-2.68-4.67-3.92-2.81,1.16-3.26,1.51-4.33,4.02,1.31,3.14,1.78,3.86,4.23,4.97h0c2.84-1.25,3.44-1.95,4.77-5.07ZM113.8,240.79c.7-1.09,1.4-2.17,2.11-3.25-1.07.54-1.95,1.39-2.52,2.44.12.28.26.55.42.81h-.01ZM108.74,228.24c-.96-2.01-1.74-2.55-4.36-3.66-2.36,1.01-2.94,1.54-3.91,3.75,1.14,2.69,1.73,3.52,3.82,4.53h0c2.53-1.15,3.27-1.95,4.45-4.62ZM104.3,236.98c-1.42.57-2.56,1.67-3.16,3.07.54,1.58,1.64,2.91,3.09,3.75h0c1.68-.76,3.01-2.12,3.73-3.82-.82-1.41-2.12-2.48-3.66-3.01h0ZM106.18,253.01c.28-.46.55-.91.83-1.36-.73-.96-1.68-1.73-2.78-2.23-1.01.54-1.84,1.36-2.39,2.36.52,1.15,1.32,2.14,2.34,2.89h0c.76-.43,1.43-1,1.99-1.66h.01ZM92.49,244.41c2.03-.73,3.62-2.34,4.33-4.37-.95-1.9-1.78-2.5-4.24-3.56-1.74.56-3.11,1.91-3.69,3.65,1.07,2.5,1.69,3.35,3.62,4.31v-.02h-.02ZM89.46,251.85c.54,1.51,1.59,2.79,2.97,3.61v-.02c1.63-.73,2.95-2.04,3.68-3.67-.82-1.38-2.1-2.43-3.61-2.97-1.37.59-2.46,1.68-3.04,3.05ZM90.05,263.56c.51,1.15,1.32,2.14,2.33,2.88,1.24-.67,2.27-1.68,2.97-2.91h0c-.75-1.05-1.76-1.87-2.92-2.4-1.01.56-1.84,1.41-2.38,2.43ZM97.49,228.33c-1.09-2.46-1.69-2.83-4.8-4.12-2.82,1.17-3.2,1.51-4.33,4.22,1.3,3.16,1.71,3.8,4.22,4.92h0c3-1.29,3.58-1.91,4.9-5.02h.01ZM91.78,278.41c.68-1.28,1.36-2.56,2.05-3.83-.44-.39-.91-.75-1.44-1.03h0c-1.02.72-1.82,1.72-2.33,2.86.42.79,1.01,1.47,1.73,2h-.01ZM84.5,263.56c-.84-1.49-2.2-2.61-3.82-3.16-1.43.61-2.55,1.78-3.11,3.23.52,1.57,1.61,2.89,3.05,3.71h0c1.73-.72,3.12-2.07,3.88-3.78ZM80.62,272.64c-1.43.82-2.51,2.14-3.03,3.71h-.01c.56,1.44,1.68,2.6,3.11,3.22,1.62-.55,2.97-1.67,3.82-3.16-.76-1.71-2.16-3.06-3.89-3.77ZM85.1,251.84c-.97-1.95-1.81-2.56-4.33-3.64-1.75.58-3.11,1.97-3.66,3.73,1.07,2.49,1.67,3.32,3.58,4.27v-.02c2.04-.7,3.67-2.3,4.41-4.34ZM85.67,240.12c-1.08-2.42-1.74-2.85-4.79-4.12-2.68,1.12-3.07,1.53-4.2,4.22,1.27,3.06,1.7,3.71,4.11,4.79h0c2.98-1.3,3.62-1.92,4.89-4.89h-.01ZM77.12,288.05c.55,1.76,1.91,3.15,3.66,3.73,2.52-1.08,3.36-1.7,4.33-3.64-.74-2.03-2.36-3.63-4.41-4.33h-.01c-1.91.94-2.5,1.76-3.57,4.24ZM86.21,228.42c-1.24-2.97-1.58-3.1-5.22-4.59-3.33,1.36-3.41,1.42-4.75,4.7,1.51,3.67,1.65,4.03,4.64,5.28h0c3.52-1.47,3.86-1.82,5.33-5.4h0ZM79.67,302.73c1.05-2.25,2.11-4.48,3.19-6.71-.55-.34-1.2-.66-2.08-1.04h-.01c-2.17.96-2.74,1.6-3.75,3.94.89,2.1,1.42,3.02,2.65,3.81ZM69.29,314.85c2.53-1.15,3.27-1.95,4.45-4.62-.97-2.01-1.74-2.55-4.36-3.66-2.36,1.01-2.94,1.54-3.92,3.75,1.15,2.69,1.74,3.52,3.83,4.53h0ZM68.87,268.16c2.76-1.21,3.54-1.93,4.71-4.51-1.03-2.16-1.84-2.73-4.62-3.91-2.26.99-2.76,1.56-3.8,4,1.14,2.69,1.65,3.45,3.71,4.42h0ZM65.17,276.26c1.04,2.45,1.54,3.01,3.8,4,2.78-1.17,3.59-1.75,4.62-3.91-1.17-2.59-1.96-3.3-4.71-4.51-2.06.98-2.57,1.73-3.7,4.43h-.01ZM74.05,251.93c-1.13-2.57-1.75-2.96-4.98-4.29-2.74,1.14-3.05,1.5-4.25,4.4,1.31,3.16,1.65,3.74,4.15,4.83h0c3.18-1.35,3.78-1.9,5.08-4.94ZM64.82,287.96c1.2,2.9,1.51,3.25,4.25,4.4h0c3.22-1.33,3.85-1.73,4.98-4.29-1.3-3.04-1.9-3.6-5.08-4.94-2.5,1.09-2.85,1.67-4.15,4.83h0ZM64.87,298.7c1.41,3.44,1.72,3.96,4.51,5.16h0c3.03-1.28,3.6-1.84,4.84-4.74-1.24-2.91-1.78-3.31-5.15-4.71-2.7,1.13-3.05,1.52-4.2,4.29h0ZM74.49,240.23c-1.27-3.03-1.61-3.16-5.31-4.67-3.29,1.34-3.32,1.41-4.7,4.79,1.51,3.68,1.61,3.99,4.6,5.24h-.01c3.62-1.5,3.96-1.81,5.42-5.35h0ZM69.22,325.8c.16-.07.31-.15.46-.24.69-1.68,1.38-3.36,2.09-5.03-.71-.68-1.54-1.23-2.49-1.55-1.42.56-2.56,1.67-3.16,3.07.55,1.58,1.65,2.91,3.1,3.74h0ZM57.5,326.42c2.03-.73,3.62-2.34,4.33-4.37-.95-1.9-1.78-2.5-4.24-3.56-1.74.56-3.11,1.91-3.69,3.65,1.07,2.48,1.69,3.33,3.61,4.29h-.01ZM54.46,333.85c.54,1.51,1.59,2.79,2.97,3.61h0c1.64-.73,2.95-2.04,3.69-3.68-.82-1.39-2.1-2.45-3.62-2.99-1.37.59-2.46,1.68-3.04,3.05h0ZM55.06,345.58c.51,1.15,1.32,2.14,2.33,2.88,1.24-.68,2.27-1.69,2.97-2.92h0c-.75-1.04-1.76-1.86-2.92-2.38-1.01.56-1.84,1.41-2.38,2.43h0ZM62.48,310.33c-1.08-2.46-1.69-2.83-4.8-4.12-2.82,1.17-3.2,1.51-4.33,4.22,1.31,3.16,1.72,3.8,4.23,4.91h0c3-1.29,3.58-1.91,4.9-5.02h0ZM56.82,360.46c.48-1.45.95-2.9,1.44-4.35-.28-.21-.57-.39-.88-.56h0c-1.02.74-1.82,1.73-2.33,2.88.43.81,1.04,1.49,1.77,2.03ZM50.43,381.34c-1.12-2.51-1.86-3.16-4.65-4.35h0c-2.41,1.09-2.84,1.74-4.1,4.78,1.12,2.69,1.52,3.1,4.2,4.22,2.26-.94,3.21-1.42,3.99-2.59.19-.68.38-1.37.57-2.05h-.01ZM45.63,349.34h0c1.73-.71,3.12-2.06,3.88-3.76-.84-1.48-2.2-2.61-3.82-3.16-1.43.61-2.55,1.78-3.11,3.23.52,1.56,1.61,2.88,3.04,3.69h0ZM42.58,358.36c.56,1.45,1.68,2.61,3.11,3.23,1.62-.55,2.97-1.67,3.82-3.16-.76-1.71-2.15-3.06-3.88-3.77-1.43.82-2.51,2.13-3.03,3.69h-.02ZM42.12,370.07c.55,1.76,1.91,3.15,3.65,3.73,2.52-1.08,3.36-1.7,4.33-3.64-.74-2.04-2.36-3.64-4.41-4.35h0c-1.91.95-2.5,1.78-3.57,4.26ZM50.11,333.86c-.97-1.95-1.81-2.56-4.33-3.64-1.75.58-3.11,1.97-3.65,3.73,1.07,2.47,1.66,3.3,3.57,4.25h0c2.05-.7,3.68-2.3,4.41-4.34ZM50.67,322.14c-1.08-2.42-1.74-2.85-4.79-4.12-2.68,1.12-3.07,1.52-4.2,4.22,1.27,3.04,1.69,3.69,4.1,4.77h0c2.98-1.27,3.62-1.9,4.89-4.87ZM51.21,310.44c-1.24-2.97-1.58-3.1-5.22-4.59-3.33,1.36-3.41,1.42-4.74,4.7,1.5,3.65,1.65,4.01,4.64,5.26h0c3.52-1.45,3.86-1.8,5.33-5.38h-.01ZM123.07,204.71c1.68,4.11,1.78,4.33,5.48,5.86,3.36-1.39,3.34-1.61,5.04-5.74-1.4-3.44-1.25-3.17-5.14-4.76h0s0,0,0,0c-4.01,1.66-4.05,1.46-5.36,4.66h-.01ZM111.14,204.82c1.69,4.13,1.68,4.36,5.04,5.74,3.7-1.53,3.79-1.74,5.48-5.86-1.3-3.2-1.34-3-5.36-4.66h-.01c-3.89,1.6-3.74,1.33-5.14,4.77h-.01ZM99.84,216.62c1.44,3.51,1.73,4.03,4.54,5.24,3.24-1.37,3.66-1.87,5.1-5.35-1.15-2.69-1.59-2.89-5-4.29h0c-3.21,1.31-3.44,1.45-4.65,4.4h.01ZM87.82,216.72c1.6,3.91,1.65,4.17,4.86,5.5,3.66-1.51,3.85-1.76,5.43-5.61-1.29-3.12-1.46-3.09-5.31-4.66v-.02c-3.63,1.48-3.58,1.37-4.98,4.79h0ZM75.81,216.84c1.79,4.33,1.52,4.26,5.18,5.75,4.11-1.68,4.02-1.63,5.75-5.86-1.45-3.55-1.33-3.27-5.46-4.97h0c-.02-.11-.12-.17-.21-.15-.07,0-.12.07-.14.14-3.89,1.6-3.53,1.23-5.12,5.1h0ZM64.13,228.65c1.73,4.21,1.5,4.17,5.04,5.62,2.73-1.11,4.64-3.02,5.75-5.73-1.44-3.53-1.41-3.31-5.62-5.05h-.02c-3.89,1.58-3.55,1.25-5.16,5.16h.01ZM63,298.91c-1.36-3.31-1.58-3.38-5.32-4.91-3.51,1.43-3.48,1.36-4.86,4.74,1.6,3.9,1.65,4.17,4.86,5.5,3.56-1.47,3.84-1.76,5.32-5.33ZM52.53,252.16c1.62,3.94,1.51,4.05,4.73,5.37,3.95-1.62,4.16-1.76,5.7-5.48-1.36-3.31-1.58-3.31-5.58-4.95h0c-3.49,1.43-3.31,1.31-4.84,5.06h0ZM40.81,298.85c1.79,4.34,1.52,4.26,5.18,5.75,4.11-1.68,4.02-1.63,5.75-5.86-1.45-3.57-1.33-3.29-5.46-4.99h0c-.02-.09-.12-.16-.22-.13-.07.02-.12.07-.14.14-3.89,1.6-3.53,1.23-5.11,5.1h0ZM43.4,409.18c.72-3.22,1.47-6.43,2.25-9.64-3.29,1.35-3.11,1.42-4.84,5.61,1.11,2.71,1.27,3.34,2.59,4.02h0ZM57.16,779.08c-2.8,1.18-2.92,1.53-4.38,5.07,1.37,3.35,1.44,3.51,4.48,4.76,3.64-1.49,4.11-1.73,5.35-4.65-1.4-3.33-1.85-3.69-5.46-5.18h.01ZM62.61,771.73c-1.24-2.92-1.71-3.16-5.35-4.65-3.04,1.25-3.11,1.41-4.48,4.76h0c1.45,3.54,1.57,3.9,4.37,5.07,3.61-1.49,4.06-1.85,5.46-5.18ZM62.96,760.04c-1.36-3.31-1.58-3.3-5.58-4.94-.88.32-1.73.71-2.55,1.17-.94.66-1.24,1.55-2.24,4,1.57,3.83,1.5,3.95,4.68,5.26h0c3.95-1.62,4.16-1.76,5.69-5.48h0ZM45.99,649.84c-3.33,1.36-3.41,1.42-4.74,4.7,1.5,3.66,1.64,4.02,4.63,5.27h0c1.03-.42,1.78-.75,2.38-1.1-.78-2.95-1.54-5.91-2.27-8.87h0ZM45.63,698.66c-1.43.81-2.52,2.13-3.04,3.69.56,1.45,1.68,2.61,3.11,3.23,1.62-.55,2.98-1.67,3.82-3.16-.76-1.71-2.15-3.06-3.88-3.77h0ZM49.51,689.57c-.84-1.48-2.2-2.61-3.82-3.16-1.43.61-2.55,1.78-3.11,3.23h0c.52,1.57,1.6,2.88,3.03,3.7,1.73-.71,3.12-2.06,3.88-3.77h.02ZM50.11,677.85c-.97-1.94-1.81-2.56-4.33-3.64-1.75.58-3.11,1.97-3.65,3.73,1.07,2.48,1.66,3.31,3.57,4.26h0c2.05-.7,3.68-2.3,4.41-4.34h0ZM42.12,714.05c.55,1.76,1.91,3.15,3.65,3.73,2.52-1.08,3.36-1.7,4.33-3.64-.74-2.04-2.36-3.64-4.41-4.34h0c-1.91.95-2.5,1.78-3.57,4.25h0ZM41.68,725.76c1.12,2.69,1.52,3.1,4.2,4.22,3.05-1.27,3.71-1.7,4.79-4.12-1.28-2.97-1.91-3.6-4.89-4.88h0c-2.41,1.08-2.84,1.74-4.1,4.78ZM41.24,737.45c1.34,3.28,1.41,3.34,4.74,4.7,3.64-1.49,3.98-1.61,5.22-4.59-1.48-3.57-1.81-3.92-5.33-5.38h0c-2.99,1.26-3.14,1.62-4.64,5.27h0ZM50.43,666.66c-.19-.68-.38-1.37-.57-2.05-.78-1.17-1.73-1.65-3.99-2.59-2.68,1.12-3.07,1.53-4.2,4.22,1.26,3.05,1.69,3.7,4.1,4.78h0c2.79-1.19,3.53-1.84,4.65-4.35h.01ZM57.5,721.58c-1.92.96-2.54,1.8-3.61,4.29.58,1.74,1.95,3.09,3.69,3.65,2.46-1.06,3.3-1.66,4.24-3.56-.71-2.03-2.3-3.64-4.33-4.37h.01ZM61.12,714.21c-.74-1.64-2.05-2.94-3.69-3.68h0c-1.38.82-2.43,2.1-2.97,3.61.58,1.37,1.67,2.46,3.04,3.05,1.52-.54,2.8-1.6,3.62-2.99h0ZM60.36,702.47h0c-.7-1.23-1.72-2.25-2.97-2.92-1.02.74-1.82,1.73-2.33,2.88.54,1.02,1.37,1.86,2.38,2.43,1.17-.52,2.18-1.34,2.92-2.38h0ZM53.35,737.57c1.13,2.71,1.51,3.05,4.33,4.22,3.11-1.28,3.72-1.66,4.8-4.12-1.32-3.11-1.9-3.73-4.9-5.02h0c-2.51,1.11-2.92,1.75-4.23,4.91h0ZM58.27,691.89c-.49-1.45-.97-2.9-1.44-4.35-.73.53-1.34,1.22-1.77,2.03.51,1.15,1.32,2.14,2.33,2.88h0c.31-.16.6-.35.88-.56h0ZM69.68,722.44c-.15-.08-.31-.16-.46-.24h0c-1.45.83-2.55,2.16-3.1,3.74.61,1.4,1.74,2.51,3.16,3.07.94-.32,1.78-.87,2.49-1.55-.71-1.67-1.4-3.35-2.09-5.03h0ZM69.29,733.14h0c-2.09,1.01-2.68,1.83-3.83,4.53.97,2.2,1.56,2.73,3.92,3.75,2.62-1.11,3.4-1.65,4.36-3.66-1.18-2.67-1.93-3.47-4.45-4.62h0ZM65.16,784.26c1.04,2.44,1.54,3.01,3.8,4,2.78-1.17,3.59-1.75,4.62-3.91-1.17-2.59-1.95-3.31-4.71-4.51h0c-2.06.98-2.57,1.73-3.71,4.42ZM65.17,771.74c1.13,2.69,1.64,3.44,3.7,4.42,2.76-1.21,3.54-1.93,4.71-4.51-1.03-2.16-1.84-2.73-4.62-3.91-2.26.99-2.76,1.56-3.8,4h.01ZM64.82,795.96c1.19,2.9,1.5,3.25,4.25,4.4,3.22-1.33,3.85-1.73,4.98-4.29-1.3-3.04-1.9-3.6-5.08-4.94h0c-2.5,1.09-2.85,1.67-4.15,4.83h0ZM74.05,759.94c-1.13-2.57-1.75-2.96-4.98-4.29h0c-2.75,1.14-3.06,1.5-4.25,4.39,1.3,3.16,1.65,3.74,4.15,4.83,3.18-1.34,3.78-1.89,5.08-4.94h0ZM74.23,748.88c-1.25-2.94-1.81-3.46-4.85-4.74h0c-2.79,1.2-3.1,1.72-4.51,5.16,1.15,2.79,1.49,3.16,4.2,4.29,3.39-1.4,3.9-1.76,5.16-4.71h0ZM64.47,807.66c1.38,3.38,1.41,3.44,4.7,4.78,3.7-1.51,4.05-1.65,5.31-4.67-1.46-3.53-1.8-3.85-5.42-5.34h.01c-2.99,1.24-3.09,1.55-4.6,5.23ZM80.62,780.66c-1.43.82-2.52,2.13-3.04,3.7.56,1.45,1.68,2.61,3.11,3.23,1.62-.55,2.98-1.67,3.82-3.16-.76-1.71-2.15-3.06-3.88-3.77h-.01ZM84.5,771.58c-.84-1.48-2.2-2.61-3.82-3.16-1.43.61-2.55,1.78-3.11,3.23h.01c.52,1.56,1.6,2.88,3.03,3.7,1.73-.71,3.12-2.06,3.89-3.77ZM85.1,759.86c-.97-1.94-1.81-2.56-4.33-3.64-1.75.58-3.11,1.97-3.66,3.73,1.06,2.48,1.66,3.31,3.57,4.26h.01c2.05-.71,3.67-2.3,4.41-4.34h0ZM77.12,796.07c.55,1.76,1.91,3.15,3.66,3.73,2.52-1.08,3.36-1.7,4.33-3.64-.74-2.04-2.36-3.64-4.42-4.34h.01c-1.91.94-2.51,1.77-3.58,4.26h0ZM76.67,807.77c1.12,2.69,1.52,3.1,4.2,4.22,3.05-1.27,3.71-1.7,4.79-4.12-1.28-2.97-1.91-3.6-4.89-4.88h0c-2.41,1.07-2.84,1.72-4.11,4.78h.01ZM76.24,819.46c1.34,3.28,1.42,3.34,4.75,4.7,3.64-1.49,3.98-1.61,5.22-4.59-1.48-3.57-1.81-3.92-5.33-5.38h0c-2.99,1.24-3.14,1.61-4.64,5.27ZM82.86,751.98c-1.08-2.23-2.15-4.47-3.19-6.72-1.22.78-1.75,1.7-2.65,3.81,1.01,2.35,1.58,2.98,3.75,3.95h.01c.87-.38,1.53-.7,2.08-1.04h0ZM92.49,803.59h.01c-1.92.95-2.54,1.79-3.62,4.29.58,1.74,1.95,3.09,3.69,3.65,2.46-1.06,3.3-1.66,4.24-3.56-.71-2.04-2.3-3.64-4.33-4.37h.01ZM96.12,796.23c-.74-1.64-2.05-2.94-3.69-3.68h0c-1.38.81-2.43,2.08-2.97,3.6.58,1.37,1.67,2.46,3.04,3.05,1.52-.54,2.79-1.59,3.61-2.97h.01ZM95.36,784.47c-.7-1.23-1.73-2.24-2.97-2.91-1.02.74-1.82,1.73-2.33,2.88.54,1.02,1.37,1.86,2.38,2.43,1.17-.52,2.18-1.34,2.92-2.38h0v-.02ZM88.35,819.57c1.13,2.71,1.51,3.05,4.33,4.22,3.11-1.28,3.71-1.66,4.8-4.12-1.32-3.11-1.9-3.73-4.9-5.02-2.51,1.11-2.92,1.75-4.23,4.91h0ZM93.83,773.42c-.69-1.27-1.37-2.55-2.05-3.83-.71.53-1.31,1.21-1.73,2,.51,1.15,1.32,2.14,2.33,2.88h0c.52-.29,1-.65,1.44-1.04h.01ZM104.22,804.2h0c-1.45.83-2.55,2.16-3.1,3.74.61,1.4,1.74,2.51,3.16,3.07,1.54-.53,2.84-1.59,3.66-3-.72-1.7-2.05-3.06-3.73-3.82h0ZM100.47,819.67c.97,2.2,1.56,2.73,3.91,3.75,2.62-1.1,3.4-1.65,4.36-3.66-1.18-2.67-1.93-3.47-4.45-4.62h0c-2.09,1.01-2.68,1.84-3.82,4.53h0ZM107,796.35c-.27-.45-.55-.9-.82-1.35-.57-.66-1.24-1.23-2-1.66h0c-1.02.74-1.83,1.73-2.35,2.88.56,1,1.38,1.82,2.39,2.36,1.1-.5,2.05-1.27,2.78-2.23h0ZM116,815.65c-1.72.93-2.4,1.85-3.41,4.11.63,1.55,1.9,2.74,3.49,3.27,2.16-.95,3.03-1.58,3.9-3.2-.69-1.88-2.13-3.4-3.97-4.18h0ZM111.85,831.48c1.07,2.51,1.52,2.86,4.33,4.02,3.01-1.24,3.63-1.62,4.67-3.92-1.32-3.12-1.92-3.82-4.77-5.07h0c-2.45,1.11-2.93,1.83-4.23,4.96h0ZM115.91,810.46c-.71-1.08-1.41-2.16-2.11-3.25-.15.26-.3.53-.42.81.57,1.05,1.46,1.9,2.52,2.44h.01ZM123.88,831.58c1.03,2.31,1.66,2.68,4.67,3.92,1.83-.75,2.65-1.17,3.3-2.06-1.53-2.09-3.05-4.18-4.55-6.29-1.74.94-2.34,1.87-3.42,4.42h0ZM40.81,642.85c1.73,4.19,1.55,4.27,4.84,5.61-.78-3.2-1.53-6.42-2.25-9.64-1.32.68-1.48,1.32-2.59,4.02h0ZM51.74,749.26c-1.73-4.24-1.64-4.18-5.75-5.86-3.66,1.49-3.39,1.42-5.18,5.75,1.59,3.88,1.22,3.5,5.11,5.1.02.07.07.12.14.14.1.02.19-.04.22-.14h0c4.12-1.7,4.01-1.42,5.46-4.99ZM62.96,795.95c-1.54-3.72-1.75-3.86-5.7-5.48-3.22,1.32-3.11,1.43-4.73,5.37,1.53,3.74,1.35,3.63,4.84,5.05h0c4.01-1.64,4.22-1.63,5.58-4.94h.01ZM63,749.09c-1.47-3.58-1.75-3.86-5.32-5.33-3.21,1.33-3.26,1.6-4.86,5.5,1.38,3.38,1.35,3.31,4.86,4.74,3.74-1.53,3.96-1.6,5.32-4.91ZM74.92,819.46c-1.11-2.71-3.02-4.62-5.75-5.73-3.54,1.44-3.31,1.41-5.04,5.62,1.6,3.91,1.26,3.58,5.16,5.17h.02c4.21-1.74,4.18-1.52,5.62-5.06h0ZM86.74,831.27c-1.74-4.24-1.64-4.18-5.75-5.86-3.65,1.49-3.39,1.42-5.18,5.75,1.59,3.88,1.22,3.5,5.12,5.1.01.07.07.12.14.14.1.02.19-.04.21-.14h0c4.12-1.71,4.01-1.43,5.46-4.99ZM98.11,831.38c-1.58-3.85-1.77-4.1-5.43-5.61-3.21,1.33-3.26,1.6-4.86,5.5,1.39,3.42,1.34,3.31,4.97,4.79h0c3.85-1.59,4.03-1.55,5.31-4.68h.01ZM109.48,831.48c-1.44-3.48-1.86-3.98-5.1-5.35-2.82,1.21-3.1,1.73-4.54,5.24,1.21,2.94,1.45,3.09,4.65,4.4h0c3.41-1.4,3.85-1.6,4.99-4.29h0ZM121.66,843.29c-1.68-4.11-1.78-4.33-5.48-5.86-3.36,1.39-3.34,1.61-5.04,5.74,1.4,3.44,1.25,3.17,5.14,4.77h.01c4.02-1.65,4.05-1.45,5.36-4.66h.01ZM133.58,843.18c-1.69-4.13-1.68-4.36-5.04-5.74-3.7,1.53-3.79,1.74-5.48,5.86,1.31,3.2,1.34,3,5.36,4.66h0c3.89-1.6,3.74-1.33,5.14-4.77h.01ZM142,846.85c-1.92-2.45-3.82-4.92-5.69-7.41-.56.74-.99,1.81-1.77,3.72.37.91.64,1.57.88,2.07.7,1.35,1.37,1.54,4.1,2.66,0,0,.02-.01.03-.02h0c1.05-.43,1.83-.74,2.44-1.02h0ZM152.02,859.22c-1.77-2.12-3.52-4.25-5.26-6.39-.18.44-.38.93-.62,1.52,1.6,3.91,1.27,3.58,5.16,5.17h0c.26-.11.49-.2.72-.29h0ZM162.04,870.89c-1.41-1.6-2.81-3.2-4.2-4.81,0,.02-.02.04-.03.07,1.46,3.55,1.28,3.54,4.23,4.74ZM172.45,882.31c-.81-.87-1.63-1.74-2.44-2.61.68,1.64.95,1.98,2.44,2.61ZM184.22,894.46c-.96-.96-1.92-1.94-2.87-2.91.83,2.08.84,2.09,2.87,2.91ZM1070.8,524c0-284.52-231.48-516-516-516S38.8,239.48,38.8,524s231.48,516,516,516,516-231.48,516-516ZM952.79,866.15c-.13-.31-.24-.59-.35-.86-1.71,1.99-3.43,3.97-5.17,5.93.02,0,.04.02.06.02.01.07.07.12.14.14.1.02.19-.04.21-.14h0c3.89-1.6,3.53-1.23,5.12-5.1h-.01ZM964.46,854.35c-.41-.99-.7-1.74-.97-2.33-1.86,2.32-3.76,4.61-5.66,6.9.43.18.9.37,1.47.6h0c3.9-1.6,3.56-1.27,5.16-5.17ZM975.18,845.22c.25-.49.51-1.15.88-2.05-1.02-2.49-1.43-3.55-2.33-4.31-1.93,2.56-3.88,5.11-5.86,7.64.69.38,1.66.75,3.17,1.38.01,0,.03.01.04.02,2.73-1.12,3.4-1.31,4.1-2.66h0v-.02ZM987.54,843.3c-1.69-4.11-1.78-4.33-5.48-5.86-3.36,1.39-3.35,1.61-5.04,5.74,1.4,3.44,1.25,3.17,5.14,4.77h.02c4.01-1.66,4.05-1.47,5.36-4.66h0ZM999.46,843.19c-1.7-4.13-1.69-4.36-5.04-5.74-3.7,1.53-3.8,1.74-5.48,5.86,1.31,3.2,1.34,3,5.36,4.66h.01c3.89-1.61,3.75-1.34,5.15-4.77h0ZM1010.76,831.38c-1.44-3.51-1.72-4.03-4.54-5.24-3.24,1.36-3.66,1.87-5.1,5.35,1.14,2.7,1.58,2.9,4.99,4.3h0c3.21-1.32,3.44-1.47,4.65-4.41h0ZM1022.78,831.27c-1.6-3.91-1.65-4.17-4.86-5.5-3.66,1.51-3.85,1.76-5.43,5.61,1.29,3.14,1.47,3.1,5.32,4.68h0c3.62-1.49,3.57-1.38,4.97-4.79ZM1034.79,831.16c-1.79-4.33-1.52-4.26-5.18-5.75-4.11,1.68-4.01,1.63-5.75,5.86,1.46,3.57,1.34,3.29,5.46,4.99.07.03.14.08.18.14.04-.06.1-.11.17-.14h0c3.9-1.61,3.53-1.24,5.12-5.1ZM1046.46,819.36c-1.73-4.21-1.5-4.17-5.04-5.62-2.73,1.11-4.64,3.02-5.75,5.73,1.45,3.54,1.42,3.33,5.63,5.06h0c3.9-1.61,3.56-1.27,5.16-5.17ZM1047.6,749.1c1.36,3.3,1.58,3.38,5.32,4.91,3.51-1.43,3.48-1.36,4.86-4.74-1.6-3.91-1.65-4.17-4.86-5.5h0c-3.56,1.46-3.84,1.75-5.32,5.33ZM1047.64,760.05c1.53,3.72,1.74,3.86,5.69,5.48h0c3.19-1.31,3.12-1.44,4.69-5.26-1-2.44-1.31-3.33-2.25-4-.82-.46-1.67-.85-2.55-1.17-4.01,1.64-4.22,1.64-5.58,4.94h0ZM1057.81,771.86c-1.36-3.35-1.43-3.51-4.48-4.76-3.63,1.49-4.1,1.73-5.34,4.65,1.39,3.33,1.84,3.69,5.45,5.18h0c2.8-1.19,2.93-1.54,4.37-5.07ZM1057.81,784.15c-1.44-3.54-1.57-3.9-4.37-5.06-3.61,1.49-4.06,1.85-5.45,5.18,1.24,2.92,1.71,3.16,5.34,4.65,3.05-1.25,3.12-1.41,4.48-4.76h0ZM1058.06,795.85c-1.61-3.94-1.51-4.05-4.73-5.37-3.95,1.62-4.16,1.76-5.69,5.48,1.36,3.31,1.57,3.3,5.58,4.94h0c3.5-1.43,3.31-1.32,4.84-5.05ZM1069.79,749.15c-1.79-4.33-1.52-4.26-5.18-5.75-4.11,1.68-4.01,1.63-5.75,5.86,1.46,3.57,1.34,3.29,5.46,4.99.07.03.14.08.18.14.04-.06.1-.11.17-.14h0c3.9-1.6,3.53-1.23,5.12-5.1ZM1069.79,642.85c-1.32-3.22-1.3-3.51-3.5-4.43-.74,3.32-1.51,6.63-2.31,9.93.2.08.4.17.63.26h0c3.66-1.49,3.39-1.42,5.18-5.76ZM1081.46,737.35c-1.73-4.21-1.5-4.17-5.04-5.62-2.73,1.11-4.64,3.02-5.75,5.73,1.45,3.54,1.42,3.33,5.63,5.06h0c3.9-1.59,3.56-1.26,5.16-5.17ZM1080.43,689.73c-1.04-2.44-1.54-3.01-3.8-4-2.78,1.17-3.59,1.75-4.62,3.91h0c1.17,2.59,1.96,3.31,4.71,4.51,2.07-.98,2.58-1.73,3.71-4.42h0ZM1076.72,697.84h0c-2.75,1.21-3.54,1.93-4.71,4.51,1.03,2.16,1.84,2.73,4.62,3.91,2.26-.99,2.76-1.56,3.8-4-1.13-2.69-1.64-3.44-3.71-4.42h0ZM1071.55,714.06c1.13,2.57,1.76,2.96,4.98,4.29,2.74-1.14,3.05-1.5,4.25-4.4-1.3-3.16-1.65-3.74-4.15-4.83h0c-3.18,1.34-3.78,1.9-5.08,4.94h0ZM1080.78,678.04c-1.2-2.9-1.51-3.25-4.25-4.4-3.22,1.33-3.85,1.72-4.98,4.29,1.3,3.04,1.9,3.59,5.08,4.94h0c2.5-1.09,2.85-1.67,4.15-4.83h0ZM1081.12,666.34c-1.38-3.38-1.41-3.44-4.7-4.78-3.7,1.51-4.05,1.65-5.31,4.67,1.46,3.53,1.8,3.85,5.42,5.34h0c2.99-1.24,3.09-1.55,4.59-5.23ZM1071.11,725.75c1.26,3.03,1.61,3.16,5.31,4.67,3.29-1.34,3.32-1.4,4.7-4.78-1.5-3.67-1.6-3.98-4.59-5.23h0c-3.62,1.5-3.96,1.81-5.42,5.34ZM1081.46,654.65c-1.6-3.91-1.26-3.58-5.16-5.17-4.21,1.73-4.18,1.52-5.63,5.06,1.11,2.71,3.02,4.62,5.75,5.73h0c3.54-1.44,3.31-1.4,5.04-5.62ZM1093.06,713.84c-1.61-3.94-1.51-4.05-4.73-5.37-3.95,1.62-4.16,1.76-5.69,5.48,1.36,3.31,1.57,3.3,5.58,4.94h0c3.5-1.42,3.31-1.3,4.84-5.06h0ZM1092.81,689.84c-1.36-3.35-1.43-3.51-4.48-4.76-3.63,1.49-4.1,1.73-5.34,4.65h0c1.39,3.34,1.84,3.7,5.45,5.18,2.8-1.17,2.93-1.53,4.37-5.07ZM1088.44,697.07h0c-3.61,1.5-4.06,1.86-5.45,5.18,1.24,2.92,1.71,3.16,5.34,4.65,3.05-1.25,3.12-1.41,4.48-4.76-1.44-3.54-1.57-3.9-4.37-5.07ZM1093.06,678.15c-1.53-3.74-1.34-3.63-4.84-5.05-4.01,1.64-4.22,1.64-5.58,4.94,1.53,3.72,1.74,3.86,5.69,5.48h0c3.22-1.31,3.12-1.42,4.73-5.37ZM1086.38,754.25c-3.38-1.38-3.07-1.07-4.46-4.45h0c-.02-.11-.11-.19-.21-.2-.11.02-.19.1-.22.2-1.38,3.39-1.07,3.08-4.46,4.46-.12.01-.21.12-.2.24,0,.1.09.19.2.2,3.39,1.38,3.08,1.07,4.46,4.46.03.1.11.18.22.2.1-.02.19-.1.21-.2,1.39-3.39,1.08-3.08,4.46-4.46.27-.11.27-.32,0-.43v-.02ZM1098.02,742.55c-3.34-1.35-3.04-1.05-4.4-4.4h0c-.03-.11-.11-.18-.22-.2-.1.02-.19.1-.21.2-1.37,3.34-1.06,3.04-4.41,4.4-.26.11-.26.32,0,.43,3.35,1.36,3.04,1.06,4.41,4.4.02.1.11.18.21.2.11-.02.19-.1.22-.2,1.36-3.34,1.06-3.04,4.4-4.4.27-.11.27-.32,0-.43ZM1097.41,754.25c-2.87-1.16-2.63-.92-3.79-3.79h0c-.03-.11-.11-.19-.22-.2-.1.02-.19.1-.21.2-1.17,2.87-.93,2.63-3.8,3.79-.26.11-.26.32,0,.43,2.87,1.16,2.63.92,3.8,3.8.02.1.11.18.21.2.11-.02.19-.1.22-.2,1.16-2.87.92-2.63,3.79-3.8.27-.11.27-.32,0-.43ZM969.39,871.25c-3.38-1.38-3.07-1.07-4.46-4.45h0c-.02-.11-.11-.19-.21-.2-.11.02-.19.1-.22.2-1.38,3.39-1.07,3.08-4.46,4.46-.12.01-.21.12-.2.24,0,.1.09.19.2.2,3.39,1.38,3.08,1.07,4.46,4.46.03.1.11.18.22.2.1-.02.19-.1.21-.2,1.39-3.39,1.08-3.08,4.46-4.46.27-.11.27-.32,0-.43v-.02ZM981.03,859.55c-3.34-1.35-3.04-1.05-4.4-4.4h0c-.03-.11-.11-.18-.22-.2-.1.02-.19.1-.21.2-1.37,3.34-1.06,3.04-4.41,4.4-.26.11-.26.32,0,.43,3.35,1.36,3.04,1.06,4.41,4.4.02.1.11.18.21.2.11-.02.19-.1.22-.2,1.36-3.34,1.06-3.04,4.4-4.4.27-.11.27-.32,0-.43ZM968.56,882.94c-2.74-1.11-2.52-.88-3.63-3.63h0c-.02-.11-.11-.19-.21-.2-.11.02-.19.1-.22.2-1.11,2.74-.88,2.52-3.63,3.63-.12.02-.2.13-.19.24.01.1.09.17.19.19,2.75,1.11,2.52.89,3.63,3.63.03.1.11.18.22.2.1-.02.19-.1.21-.2,1.11-2.74.89-2.52,3.63-3.63.27-.11.27-.32,0-.43ZM1039.3,847.94c-3.09-1.25-2.82-.98-4.07-4.07h0c-.01-.12-.12-.21-.24-.2-.1,0-.18.09-.19.19-1.26,3.09-.99,2.82-4.07,4.07-.27.11-.27.32,0,.43,3.08,1.26,2.81.99,4.07,4.07.01.12.12.21.24.19.1,0,.18-.09.19-.19,1.25-3.09.98-2.82,4.07-4.07.26-.11.26-.32,0-.43h0ZM944.78,894.64c-2.45-.98-2.26-.79-3.25-3.24h0c-.02-.11-.11-.19-.22-.21-.1.02-.19.1-.21.2-.98,2.45-.8,2.26-3.24,3.24-.26.11-.26.32,0,.43,2.45.98,2.26.8,3.24,3.24,0,.12.11.21.23.2.11,0,.19-.09.2-.2.98-2.45.8-2.26,3.24-3.24.1-.02.18-.11.2-.22-.02-.1-.1-.19-.2-.21h.01ZM32.74,765.95c-2.74-1.11-2.52-.89-3.63-3.63h0c-.03-.1-.11-.18-.21-.2-.1.02-.19.1-.22.2-1.11,2.74-.89,2.52-3.63,3.63-.26.11-.26.32,0,.43,2.74,1.11,2.52.89,3.63,3.63.03.1.11.18.22.2.1-.02.19-.1.21-.2,1.11-2.74.89-2.52,3.63-3.63.12-.01.21-.12.19-.24,0-.1-.09-.18-.19-.19ZM980.42,871.25c-2.87-1.16-2.63-.92-3.79-3.8h0c-.03-.11-.11-.19-.22-.2-.1.02-.19.1-.21.2-1.17,2.87-.93,2.63-3.8,3.8-.26.11-.26.32,0,.43,2.87,1.16,2.63.92,3.8,3.8.02.1.11.18.21.2.11-.02.19-.1.22-.2,1.16-2.87.92-2.63,3.79-3.8.27-.11.27-.32,0-.43ZM1026.78,859.64c-2.45-.98-2.26-.8-3.25-3.24h0c0-.12-.09-.21-.21-.21s-.21.09-.21.21c-.99,2.45-.8,2.26-3.25,3.24-.26.11-.26.32,0,.43,2.45.98,2.26.8,3.25,3.24,0,.12.09.21.21.21s.21-.09.21-.21c.99-2.45.8-2.26,3.25-3.24.1-.02.18-.11.19-.22-.02-.1-.09-.19-.19-.21ZM1028.06,847.94c-3.43-1.4-3.11-1.08-4.51-4.51h0c-.01-.12-.12-.21-.24-.2-.11.01-.19.09-.2.2-1.4,3.43-1.08,3.11-4.51,4.52-.27.11-.27.32,0,.43,3.43,1.4,3.11,1.09,4.51,4.51.01.12.12.21.24.2.11-.01.19-.09.2-.2,1.4-3.43,1.08-3.11,4.51-4.51.26-.11.26-.32,0-.43h0ZM1015.31,859.64c-2.61-1.05-2.4-.84-3.46-3.46h0c-.03-.1-.11-.18-.21-.2-.11.02-.19.1-.22.2-1.06,2.62-.85,2.41-3.46,3.46-.27.11-.27.32,0,.43,2.61,1.06,2.4.85,3.46,3.46.03.1.11.18.22.2.1-.02.18-.1.21-.2,1.06-2.62.85-2.41,3.46-3.46.27-.11.27-.32,0-.43ZM992.37,859.64c-2.96-1.2-2.71-.95-3.91-3.9h0c-.02-.11-.11-.19-.21-.2-.11.02-.19.1-.22.2-1.2,2.96-.95,2.7-3.9,3.91-.1.02-.18.11-.2.22.02.11.1.19.2.22,2.95,1.2,2.7.95,3.9,3.91.03.1.11.18.22.2.1-.02.19-.1.21-.2,1.2-2.96.95-2.7,3.91-3.91.26-.11.26-.32,0-.43v-.02ZM1003.84,859.64c-2.79-1.13-2.55-.9-3.68-3.68h0c-.03-.11-.11-.18-.22-.2-.1.02-.19.1-.21.2-1.13,2.79-.9,2.56-3.69,3.68-.26.11-.26.32,0,.43,2.79,1.13,2.56.9,3.69,3.69.02.1.11.18.21.2.11-.02.19-.1.22-.2,1.13-2.79.89-2.56,3.68-3.69.26-.11.26-.32,0-.43ZM95.3,188.36c2.62,1.06,2.41.85,3.46,3.46,0,.11.09.19.2.2.12,0,.22-.08.23-.2,1.06-2.62.85-2.41,3.46-3.46h0c.26-.11.26-.32,0-.43-2.62-1.06-2.41-.85-3.46-3.46-.02-.1-.11-.18-.21-.2-.1.02-.19.1-.21.2-1.06,2.62-.85,2.41-3.46,3.46-.26.11-.26.32,0,.43h-.01ZM21.82,742.56c-3.34-1.36-3.04-1.06-4.4-4.4-.01-.12-.12-.21-.24-.2-.1,0-.19.09-.2.2-1.36,3.34-1.06,3.04-4.4,4.4-.26.11-.26.32,0,.43,3.34,1.36,3.04,1.06,4.4,4.4.01.12.12.21.24.2.1,0,.19-.09.2-.2,1.36-3.34,1.06-3.04,4.4-4.4.26-.11.26-.32,0-.43ZM106.77,188.36c2.79,1.13,2.56.9,3.69,3.68,0,.1.09.18.19.19.12,0,.22-.08.24-.19,1.13-2.78.9-2.56,3.68-3.68.26-.11.26-.32,0-.43-2.78-1.13-2.56-.9-3.68-3.68-.03-.1-.11-.18-.21-.2-.11.02-.19.1-.22.2-1.13,2.78-.9,2.56-3.69,3.68-.26.11-.26.32,0,.43ZM129.59,188.44c3.34,1.36,3.04,1.06,4.4,4.4,0,.1.09.19.2.2.12,0,.23-.08.24-.2,1.36-3.34,1.06-3.04,4.4-4.4.26-.11.26-.32,0-.43-3.34-1.36-3.04-1.06-4.4-4.4,0-.1-.09-.19-.2-.2-.12,0-.23.08-.24.2-1.36,3.34-1.06,3.04-4.4,4.4-.26.11-.26.32,0,.43ZM130.18,176.75c2.88,1.17,2.64.93,3.8,3.8,0,.1.09.18.19.19.12,0,.22-.08.24-.19,1.17-2.88.93-2.63,3.8-3.8h0c.26-.11.26-.32,0-.43-2.88-1.17-2.64-.93-3.8-3.8,0-.1-.09-.18-.19-.19-.12,0-.22.08-.24.19-1.17,2.88-.93,2.64-3.8,3.8-.26.11-.26.32,0,.43ZM141.22,176.75c3.39,1.38,3.08,1.07,4.46,4.46,0,.1.09.19.2.2.12,0,.23-.08.24-.2,1.38-3.39,1.07-3.08,4.46-4.46.1,0,.19-.09.2-.2,0-.12-.08-.23-.2-.24-3.39-1.38-3.08-1.07-4.46-4.46,0-.1-.09-.19-.2-.2-.12,0-.23.08-.24.2-1.38,3.39-1.07,3.08-4.46,4.46-.26.11-.26.32,0,.43h0ZM71.3,200.05c3.09,1.26,2.82.98,4.07,4.07,0,.11.09.19.2.2.12,0,.22-.08.23-.2,1.26-3.09.99-2.82,4.07-4.07.26-.11.26-.32,0-.43-3.09-1.26-2.82-.99-4.07-4.07,0-.11-.09-.19-.2-.2-.12,0-.22.08-.23.2-1.26,3.09-.99,2.82-4.07,4.07-.26.11-.26.32,0,.43ZM60.05,200.05c2.74,1.11,2.52.89,3.63,3.63.03.1.11.18.21.2.11-.02.19-.1.22-.2,1.11-2.74.89-2.52,3.63-3.63.04-.04.08-.08.11-.13.05-.11,0-.25-.11-.3-2.74-1.11-2.52-.89-3.63-3.63,0-.1-.09-.18-.19-.19-.12,0-.22.08-.24.19-1.11,2.74-.89,2.52-3.63,3.63-.26.11-.26.32,0,.43h0ZM59.22,211.75c3.39,1.38,3.08,1.07,4.46,4.46,0,.1.09.19.2.2.12,0,.23-.08.24-.2,1.38-3.38,1.07-3.08,4.46-4.46.1,0,.19-.09.2-.2.01-.12-.08-.23-.2-.24-3.39-1.38-3.08-1.07-4.46-4.46,0-.1-.09-.19-.2-.2-.12,0-.23.08-.24.2-1.38,3.39-1.07,3.08-4.46,4.46-.26.11-.26.32,0,.43h0ZM48.18,211.75c2.88,1.17,2.64.93,3.8,3.8,0,.11.09.19.2.2.12,0,.22-.08.23-.2,1.17-2.88.93-2.64,3.8-3.8.26-.11.26-.32,0-.43-2.88-1.17-2.64-.92-3.8-3.8,0-.11-.09-.19-.2-.2-.12,0-.22.08-.23.2-1.17,2.87-.93,2.63-3.8,3.8-.26.11-.26.32,0,.43ZM83.83,188.36c2.44.98,2.26.8,3.24,3.24.03.1.11.18.22.2.1-.02.19-.1.21-.2.98-2.44.8-2.26,3.24-3.24h0c.26-.11.26-.32,0-.43-2.44-.98-2.26-.8-3.24-3.24,0-.11-.09-.19-.2-.2-.12,0-.22.08-.23.2-.98,2.44-.8,2.26-3.24,3.24-.1.02-.18.11-.2.21.02.1.1.19.2.21h0ZM142.05,165.05c2.74,1.11,2.52.89,3.63,3.63,0,.1.09.18.19.19.12,0,.22-.08.24-.19,1.11-2.74.89-2.52,3.63-3.63.1,0,.18-.09.19-.19,0-.12-.08-.22-.19-.24-2.74-1.11-2.52-.89-3.63-3.63,0-.1-.09-.18-.19-.19-.12,0-.22.08-.24.19-1.11,2.74-.89,2.52-3.63,3.63-.26.11-.26.32,0,.43h0ZM82.55,200.06c3.43,1.4,3.11,1.09,4.52,4.51,0,.1.09.19.2.2.12,0,.23-.08.24-.2,1.4-3.43,1.08-3.11,4.51-4.51h0c.27-.12.27-.33,0-.43-3.43-1.4-3.11-1.09-4.51-4.51-.03-.1-.11-.18-.22-.2-.11.02-.19.1-.22.2-1.4,3.43-1.09,3.11-4.52,4.51-.26.11-.26.32,0,.43ZM47.59,223.44c3.34,1.36,3.04,1.06,4.4,4.4,0,.1.09.19.2.2.12,0,.23-.08.24-.2,1.36-3.34,1.06-3.04,4.4-4.4.26-.11.26-.32,0-.43-3.34-1.36-3.04-1.06-4.4-4.4,0-.1-.09-.19-.2-.2-.12,0-.23.08-.24.2-1.36,3.34-1.06,3.04-4.4,4.4-.26.11-.26.32,0,.43ZM925.95,153.34c2.62,1.06,2.41.85,3.47,3.46,0,.11.09.19.2.2.12,0,.22-.08.23-.2,1.06-2.62.85-2.41,3.46-3.46v.02c.26-.11.26-.32,0-.45-2.62-1.06-2.41-.85-3.46-3.46-.03-.1-.11-.18-.22-.2-.1.02-.19.1-.21.2-1.06,2.62-.85,2.41-3.47,3.46-.26.11-.26.32,0,.43ZM936.59,165.04c3.43,1.4,3.11,1.09,4.51,4.52,0,.1.09.19.2.2.12,0,.23-.08.24-.2,1.4-3.43,1.09-3.11,4.52-4.52v.02c.26-.11.26-.32,0-.45-3.43-1.4-3.11-1.09-4.52-4.51-.03-.1-.11-.18-.22-.2-.11.02-.19.1-.22.2-1.4,3.43-1.08,3.11-4.51,4.51-.27.11-.27.32,0,.43h0ZM937.87,153.34c2.44.98,2.26.8,3.24,3.24,0,.11.09.19.2.2.12,0,.22-.08.23-.2.98-2.44.8-2.26,3.24-3.24v.02c.11-.03.19-.12.2-.23-.02-.11-.1-.19-.2-.21-2.44-.98-2.26-.8-3.24-3.24,0-.11-.09-.19-.2-.2-.12,0-.22.08-.23.2-.98,2.44-.8,2.26-3.24,3.24-.26.11-.26.32,0,.43h0ZM165.83,153.36c2.44.98,2.26.8,3.24,3.24,0,.11.09.19.2.2.12,0,.22-.08.23-.2.98-2.44.8-2.26,3.24-3.24.26-.11.26-.32,0-.43-2.44-.98-2.26-.8-3.24-3.24,0-.11-.09-.19-.2-.2-.12,0-.22.08-.23.2-.98,2.44-.8,2.26-3.24,3.24-.1.02-.18.11-.2.21.02.1.1.19.2.22h0ZM153.3,165.05c3.09,1.26,2.82.99,4.07,4.07,0,.11.09.19.2.2.12,0,.22-.08.23-.2,1.26-3.09.99-2.82,4.07-4.07.26-.11.26-.32,0-.43-3.09-1.26-2.82-.99-4.07-4.07,0-.11-.09-.19-.2-.2-.12,0-.22.08-.23.2-1.26,3.09-.99,2.82-4.07,4.07-.26.11-.26.32,0,.43ZM118.24,188.36c2.96,1.21,2.71.95,3.91,3.91,0,.1.09.18.19.19.12,0,.22-.08.24-.19,1.2-2.96.95-2.71,3.91-3.91.1-.03.18-.11.2-.22-.02-.1-.1-.19-.2-.21-2.96-1.2-2.71-.95-3.91-3.91-.03-.1-.11-.18-.22-.2-.11.02-.19.1-.21.2-1.2,2.96-.95,2.71-3.91,3.91-.26.11-.26.32,0,.43h0ZM21.81,398.55c-3.34-1.36-3.04-1.06-4.4-4.4-.01-.1-.09-.19-.2-.2-.12-.01-.23.08-.24.2-1.36,3.34-1.06,3.04-4.4,4.4h0c-.26.12-.26.32,0,.43,3.34,1.36,3.04,1.06,4.4,4.4,0,.1.09.19.2.2.12.01.23-.08.24-.2,1.36-3.34,1.06-3.04,4.4-4.4.26-.11.26-.32,0-.43ZM36.38,235.14c2.96,1.21,2.71.95,3.91,3.91,0,.11.09.19.2.2.12,0,.22-.08.23-.2,1.2-2.96.95-2.71,3.91-3.91h0c.26-.11.26-.32,0-.43-2.96-1.21-2.71-.95-3.91-3.91,0-.11-.09-.19-.2-.2-.12,0-.22.08-.23.2-1.2,2.96-.95,2.71-3.91,3.91-.26.11-.26.32,0,.43ZM32.93,422.18c0-.12-.08-.22-.19-.24-2.74-1.11-2.52-.89-3.63-3.63,0-.1-.09-.18-.19-.19-.12-.01-.22.08-.24.19-1.11,2.74-.89,2.52-3.63,3.63h0c-.26.11-.26.32,0,.43,2.74,1.11,2.52.89,3.63,3.63,0,.1.09.18.19.19.12.01.22-.08.24-.19,1.11-2.74.89-2.52,3.63-3.63.1,0,.18-.09.19-.19ZM13.19,637.75c2.88,1.17,2.64.92,3.8,3.8h0c0,.12.11.21.23.2.11,0,.19-.09.2-.2,1.16-2.87.92-2.63,3.8-3.8.26-.11.26-.32,0-.43-2.87-1.16-2.63-.92-3.8-3.8,0-.12-.11-.21-.23-.2-.11,0-.19.09-.2.2-1.16,2.87-.92,2.63-3.8,3.8-.26.11-.26.32,0,.43ZM.99,375.6c3.26,1.33,2.97,1.04,4.29,4.29.03.1.11.18.22.2.11-.02.19-.1.22-.2,1.33-3.26,1.03-2.97,4.29-4.29.26-.11.26-.32,0-.43-3.26-1.33-2.97-1.04-4.29-4.29-.01-.1-.09-.19-.2-.2-.12-.01-.23.08-.24.2-1.33,3.26-1.04,2.97-4.29,4.29h0c-.26.12-.26.33,0,.43ZM33.77,410.48c0-.12-.08-.22-.2-.23-3.39-1.38-3.08-1.07-4.46-4.46-.01-.1-.09-.19-.2-.2-.12-.01-.23.08-.24.2-1.38,3.39-1.07,3.08-4.46,4.46h0c-.26.12-.26.32,0,.43,3.39,1.38,3.08,1.07,4.46,4.46,0,.1.09.19.2.2.12.01.23-.08.24-.2,1.38-3.39,1.07-3.08,4.46-4.46.11,0,.19-.09.2-.2h0ZM12.59,649.45c3.34,1.35,3.04,1.05,4.4,4.4h0c.01.12.12.21.24.2.1,0,.19-.09.2-.2,1.36-3.34,1.06-3.04,4.4-4.4.26-.11.26-.32,0-.43-3.34-1.36-3.04-1.06-4.4-4.4-.01-.12-.12-.21-.24-.2-.1,0-.19.09-.2.2-1.36,3.34-1.06,3.04-4.4,4.4-.26.11-.26.32,0,.43ZM10.02,719.17c-3.26-1.33-2.97-1.04-4.29-4.29-.01-.12-.12-.21-.24-.2-.1,0-.19.09-.2.2-1.33,3.26-1.04,2.97-4.29,4.29-.26.11-.26.32,0,.43,3.26,1.33,2.97,1.04,4.29,4.29.01.12.12.21.24.2.1,0,.19-.09.2-.2,1.33-3.26,1.04-2.97,4.29-4.29.26-.11.26-.32,0-.43ZM9.63,730.86c-2.96-1.2-2.71-.95-3.91-3.91h0c0-.12-.11-.21-.23-.2-.11,0-.19.09-.2.2-1.2,2.96-.95,2.71-3.91,3.91-.26.11-.26.32,0,.43,2.96,1.2,2.71.95,3.91,3.91,0,.12.11.21.23.2.11,0,.19-.09.2-.2,1.2-2.96.95-2.71,3.91-3.91.26-.11.26-.32,0-.43ZM21.22,754.25c-2.88-1.16-2.64-.92-3.8-3.79h0c0-.12-.11-.21-.23-.2-.11,0-.19.09-.2.2-1.16,2.87-.92,2.63-3.8,3.79-.26.11-.26.32,0,.43,2.87,1.16,2.63.92,3.8,3.8,0,.12.11.21.23.2.11,0,.19-.09.2-.2,1.16-2.87.92-2.63,3.8-3.8.26-.11.26-.32,0-.43ZM1,672.83c3.26,1.33,2.97,1.04,4.29,4.29h0c.01.12.12.21.24.2.1,0,.19-.09.2-.2,1.33-3.26,1.03-2.97,4.29-4.29.26-.11.26-.32,0-.43-3.26-1.33-2.97-1.04-4.29-4.29-.01-.12-.12-.21-.24-.2-.1,0-.19.09-.2.2-1.33,3.26-1.04,2.97-4.29,4.29-.26.11-.26.32,0,.43ZM5.52,665.24c.11,0,.19-.09.2-.2,1.2-2.96.95-2.7,3.91-3.91.26-.11.26-.32,0-.43-2.96-1.2-2.71-.95-3.91-3.91,0-.12-.11-.21-.23-.2-.11,0-.19.09-.2.2-1.2,2.96-.95,2.7-3.91,3.91-.26.11-.26.32,0,.43,2.96,1.2,2.71.95,3.91,3.91h0c0,.12.11.21.23.2ZM1.38,387.29c2.96,1.2,2.71.94,3.91,3.9,0,.11.09.19.2.2.12,0,.22-.08.23-.2,1.2-2.95.95-2.7,3.91-3.9.26-.11.26-.32,0-.43-2.96-1.2-2.71-.95-3.91-3.91,0-.11-.09-.19-.2-.2-.12,0-.22.08-.23.2-1.2,2.96-.95,2.71-3.91,3.91h0c-.26.12-.26.32,0,.43ZM13.19,410.68c2.88,1.17,2.64.93,3.8,3.8,0,.11.09.19.2.2.12,0,.22-.08.23-.2,1.17-2.88.93-2.63,3.8-3.8.26-.11.26-.32,0-.43-2.88-1.16-2.64-.92-3.8-3.79,0-.11-.09-.19-.2-.2-.12,0-.22.08-.23.2-1.17,2.87-.93,2.63-3.8,3.79h0c-.26.12-.26.32,0,.43ZM13.18,293.75c2.88,1.17,2.64.93,3.8,3.8,0,.11.09.19.2.2.12,0,.22-.08.23-.2,1.17-2.88.93-2.64,3.8-3.8.26-.11.26-.32,0-.43-2.88-1.17-2.64-.93-3.8-3.8,0-.11-.09-.19-.2-.2-.12,0-.22.08-.23.2-1.17,2.88-.93,2.64-3.8,3.8-.26.11-.26.32,0,.43ZM28.91,629.88c.1,0,.18-.09.19-.19,1.11-2.74.89-2.52,3.63-3.63.12-.01.21-.12.19-.24,0-.1-.09-.18-.19-.19-2.74-1.11-2.52-.89-3.63-3.63-.01-.12-.12-.21-.24-.19-.1,0-.18.09-.19.19-1.11,2.74-.89,2.52-3.63,3.63-.26.11-.26.32,0,.43,2.75,1.11,2.52.88,3.63,3.63h0c.01.12.12.21.24.2h0ZM24.22,293.75c3.39,1.38,3.08,1.07,4.46,4.46,0,.1.09.19.2.2.12.01.23-.08.24-.2,1.38-3.39,1.07-3.08,4.46-4.46.1,0,.19-.09.2-.2,0-.12-.08-.23-.2-.24-3.39-1.38-3.08-1.07-4.46-4.46-.01-.1-.09-.19-.2-.2-.12-.01-.23.08-.24.2-1.38,3.39-1.07,3.08-4.46,4.46-.26.11-.26.32,0,.43h0ZM25.05,282.05c2.74,1.11,2.52.89,3.63,3.63,0,.1.09.18.19.19.12.01.22-.08.24-.19,1.11-2.74.89-2.52,3.63-3.63h0c.11,0,.19-.09.2-.2,0-.12-.08-.22-.2-.23-2.74-1.11-2.52-.89-3.63-3.63-.03-.1-.11-.18-.21-.2-.11.02-.19.1-.22.2-1.11,2.74-.89,2.52-3.63,3.63-.26.11-.26.32,0,.43h0ZM1.38,317.13c2.96,1.21,2.71.95,3.91,3.91,0,.11.09.19.2.2.12,0,.22-.08.23-.2,1.2-2.96.95-2.71,3.91-3.91h0c.26-.11.26-.32,0-.43-2.96-1.21-2.71-.95-3.91-3.91,0-.11-.09-.19-.2-.2-.12,0-.22.08-.23.2-1.2,2.96-.95,2.71-3.91,3.91-.26.11-.26.32,0,.43ZM35.99,246.83c3.26,1.33,2.97,1.04,4.29,4.29,0,.1.09.19.2.2.12,0,.23-.08.24-.2,1.33-3.26,1.03-2.97,4.29-4.29h0c.26-.11.26-.32,0-.43-3.26-1.33-2.97-1.04-4.29-4.29,0-.1-.09-.19-.2-.2-.12,0-.23.08-.24.2-1.33,3.26-1.03,2.97-4.29,4.29-.26.11-.26.32,0,.43ZM12.59,305.44c3.34,1.36,3.04,1.06,4.4,4.4.01.1.09.19.2.2.12.01.23-.08.24-.2,1.36-3.34,1.06-3.04,4.4-4.4.26-.11.26-.32,0-.43-3.34-1.36-3.04-1.06-4.4-4.4,0-.1-.09-.19-.2-.2-.12-.01-.23.08-.24.2-1.36,3.34-1.06,3.04-4.4,4.4-.26.11-.26.32,0,.43ZM24.22,637.75c3.38,1.38,3.08,1.07,4.46,4.46h0c.01.12.12.21.24.2.1,0,.19-.09.2-.2,1.38-3.39,1.07-3.08,4.46-4.46.12,0,.21-.11.2-.23,0-.11-.09-.19-.2-.2-3.39-1.38-3.08-1.07-4.46-4.46-.03-.1-.11-.18-.22-.2-.11.02-.19.1-.22.2-1.38,3.39-1.07,3.08-4.46,4.46-.26.11-.26.32,0,.43ZM.99,328.83c3.26,1.33,2.97,1.04,4.29,4.29,0,.1.09.19.2.2.12.01.23-.08.24-.2,1.33-3.26,1.03-2.97,4.29-4.29h0c.26-.11.26-.32,0-.43-3.26-1.33-2.97-1.03-4.29-4.29-.01-.1-.09-.19-.2-.2-.12-.01-.23.08-.24.2-1.33,3.26-1.04,2.97-4.29,4.29-.26.11-.26.32,0,.43Z"/>
</svg>